<?xml version="1.0" encoding="utf-8"?>
<!-- Svg Vector Icons : http://www.onlinewebfonts.com/icon -->
<!DOCTYPE svg PUBLIC "-//W3C//DTD SVG 1.1//EN" "http://www.w3.org/Graphics/SVG/1.1/DTD/svg11.dtd">
<svg version="1.1" xmlns="http://www.w3.org/2000/svg" xmlns:xlink="http://www.w3.org/1999/xlink" x="0px" y="0px" viewBox="0 0 1000 1000" enable-background="new 0 0 1000 1000" xml:space="preserve">
<metadata> Svg Vector Icons : http://www.onlinewebfonts.com/icon </metadata>
<g><g transform="translate(0.000000,502.000000) scale(0.100000,-0.100000)"><path d="M851.4,4895.6c-242-46.8-515.2-245.9-630.3-460.5c-128.8-242-121,70.2-121-4414.3c0-3592.7,3.9-4084.5,29.3-4185.9c93.7-357.1,394.2-634.2,751.3-690.8c85.9-13.6,1422.6-21.5,4127.4-21.5c3358.5,0,4022,5.8,4129.3,27.3c374.7,80,651.8,357.1,731.8,731.8c41,193.2,41,8085,0,8278.2c-80,374.7-357.1,651.8-731.8,731.8c-107.3,21.5-768.9,27.3-4158.6,25.4C2518,4915.1,911.9,4907.3,851.4,4895.6z M9194,4491.7c119-62.5,208.8-148.3,269.3-265.4l52.7-97.6V20.8v-4107.9l-46.8-87.8c-62.4-119-148.3-208.8-265.4-269.3l-97.6-52.7H4998.3H890.4l-89.8,44.9c-122.9,60.5-228.3,165.9-283,284.9l-46.8,99.5V1.3c0,2663.8,7.8,4092.3,19.5,4139.1c44.9,162,208.8,327.9,376.6,380.5c66.4,19.5,829.4,23.4,4160.6,21.5l4078.6-3.9L9194,4491.7z"/><path d="M4906.6,2631.9c-103.4-48.8-103.4-56.6-103.4-1291.9V196.4H3632.3H2459.4l-46.8-50.7c-68.3-72.2-66.3-179.5,2-249.8l52.7-50.7h1167h1168.9v-1143.6c0-1256.8,0-1247,117.1-1295.8c70.3-29.3,160-9.8,206.9,42.9c35.1,37.1,37.1,105.4,46.8,1213.8l9.8,1172.8l1174.8,9.8l1174.8,9.8l44.9,44.9c60.5,60.5,60.5,181.5,0,242l-44.9,44.9l-1174.8,9.8l-1174.8,9.8l-9.8,1176.7l-9.8,1178.7l-54.6,46.8C5051,2657.3,4978.8,2667,4906.6,2631.9z"/></g></g>
</svg>