<svg width="78" height="31" viewBox="0 0 78 31" fill="none" xmlns="http://www.w3.org/2000/svg">
<path d="M8.952 27.32C7.224 27.32 5.54933 27.0747 3.928 26.584C2.328 26.0933 1.05867 25.4427 0.12 24.632L1.56 21.4C2.47733 22.1253 3.59733 22.7227 4.92 23.192C6.264 23.64 7.608 23.864 8.952 23.864C10.616 23.864 11.8533 23.5973 12.664 23.064C13.496 22.5307 13.912 21.8267 13.912 20.952C13.912 20.312 13.6773 19.7893 13.208 19.384C12.76 18.9573 12.184 18.6267 11.48 18.392C10.776 18.1573 9.816 17.8907 8.6 17.592C6.89333 17.1867 5.50667 16.7813 4.44 16.376C3.39467 15.9707 2.488 15.3413 1.72 14.488C0.973333 13.6133 0.6 12.44 0.6 10.968C0.6 9.73067 0.930667 8.61067 1.592 7.608C2.27467 6.584 3.288 5.77333 4.632 5.176C5.99733 4.57867 7.66133 4.28 9.624 4.28C10.9893 4.28 12.3333 4.45067 13.656 4.792C14.9787 5.13333 16.12 5.624 17.08 6.264L15.768 9.496C14.7867 8.92 13.7627 8.48267 12.696 8.184C11.6293 7.88533 10.5947 7.736 9.592 7.736C7.94933 7.736 6.72267 8.01333 5.912 8.568C5.12267 9.12267 4.728 9.85867 4.728 10.776C4.728 11.416 4.952 11.9387 5.4 12.344C5.86933 12.7493 6.456 13.0693 7.16 13.304C7.864 13.5387 8.824 13.8053 10.04 14.104C11.704 14.488 13.0693 14.8933 14.136 15.32C15.2027 15.7253 16.1093 16.3547 16.856 17.208C17.624 18.0613 18.008 19.2133 18.008 20.664C18.008 21.9013 17.6667 23.0213 16.984 24.024C16.3227 25.0267 15.3093 25.8267 13.944 26.424C12.5787 27.0213 10.9147 27.32 8.952 27.32ZM28.525 0.0559978H32.109L21.549 30.2H17.965L28.525 0.0559978ZM47.6598 13.272C50.8171 13.272 53.1531 13.8907 54.6678 15.128C56.1824 16.344 56.9398 18.008 56.9398 20.12C56.9398 21.464 56.6091 22.68 55.9478 23.768C55.2864 24.856 54.2944 25.72 52.9718 26.36C51.6491 27 50.0171 27.32 48.0758 27.32C46.4758 27.32 44.9291 27.096 43.4358 26.648C41.9424 26.1787 40.6838 25.5387 39.6598 24.728L41.4198 21.496C42.2518 22.1787 43.2438 22.7227 44.3958 23.128C45.5691 23.512 46.7744 23.704 48.0118 23.704C49.4838 23.704 50.6358 23.4053 51.4678 22.808C52.3211 22.1893 52.7478 21.3467 52.7478 20.28C52.7478 19.128 52.2891 18.264 51.3718 17.688C50.4758 17.0907 48.9291 16.792 46.7318 16.792H41.3238L42.4758 4.6H55.6278V8.088H45.9958L45.5158 13.272H47.6598ZM68.4833 27.32C66.6913 27.32 65.0913 26.872 63.6833 25.976C62.2753 25.0587 61.1659 23.736 60.3553 22.008C59.5446 20.2587 59.1393 18.1893 59.1393 15.8C59.1393 13.4107 59.5446 11.352 60.3553 9.624C61.1659 7.87467 62.2753 6.552 63.6833 5.656C65.0913 4.73867 66.6913 4.28 68.4833 4.28C70.2753 4.28 71.8753 4.73867 73.2833 5.656C74.7126 6.552 75.8326 7.87467 76.6433 9.624C77.4539 11.352 77.8593 13.4107 77.8593 15.8C77.8593 18.1893 77.4539 20.2587 76.6433 22.008C75.8326 23.736 74.7126 25.0587 73.2833 25.976C71.8753 26.872 70.2753 27.32 68.4833 27.32ZM68.4833 23.704C70.0833 23.704 71.3419 23.0427 72.2593 21.72C73.1979 20.3973 73.6673 18.424 73.6673 15.8C73.6673 13.176 73.1979 11.2027 72.2593 9.88C71.3419 8.55733 70.0833 7.896 68.4833 7.896C66.9046 7.896 65.6459 8.55733 64.7073 9.88C63.7899 11.2027 63.3313 13.176 63.3313 15.8C63.3313 18.424 63.7899 20.3973 64.7073 21.72C65.6459 23.0427 66.9046 23.704 68.4833 23.704Z" fill="#212530"/>
</svg>
