<svg width="78" height="31" viewBox="0 0 78 31" fill="none" xmlns="http://www.w3.org/2000/svg">
<path d="M8.952 27.32C7.224 27.32 5.54933 27.0747 3.928 26.584C2.328 26.0933 1.05867 25.4427 0.12 24.632L1.56 21.4C2.47733 22.1253 3.59733 22.7227 4.92 23.192C6.264 23.64 7.608 23.864 8.952 23.864C10.616 23.864 11.8533 23.5973 12.664 23.064C13.496 22.5307 13.912 21.8267 13.912 20.952C13.912 20.312 13.6773 19.7893 13.208 19.384C12.76 18.9573 12.184 18.6267 11.48 18.392C10.776 18.1573 9.816 17.8907 8.6 17.592C6.89333 17.1867 5.50667 16.7813 4.44 16.376C3.39467 15.9707 2.488 15.3413 1.72 14.488C0.973333 13.6133 0.6 12.44 0.6 10.968C0.6 9.73067 0.930667 8.61067 1.592 7.608C2.27467 6.584 3.288 5.77333 4.632 5.176C5.99733 4.57867 7.66133 4.28 9.624 4.28C10.9893 4.28 12.3333 4.45067 13.656 4.792C14.9787 5.13333 16.12 5.624 17.08 6.264L15.768 9.496C14.7867 8.92 13.7627 8.48267 12.696 8.184C11.6293 7.88533 10.5947 7.736 9.592 7.736C7.94933 7.736 6.72267 8.01333 5.912 8.568C5.12267 9.12267 4.728 9.85867 4.728 10.776C4.728 11.416 4.952 11.9387 5.4 12.344C5.86933 12.7493 6.456 13.0693 7.16 13.304C7.864 13.5387 8.824 13.8053 10.04 14.104C11.704 14.488 13.0693 14.8933 14.136 15.32C15.2027 15.7253 16.1093 16.3547 16.856 17.208C17.624 18.0613 18.008 19.2133 18.008 20.664C18.008 21.9013 17.6667 23.0213 16.984 24.024C16.3227 25.0267 15.3093 25.8267 13.944 26.424C12.5787 27.0213 10.9147 27.32 8.952 27.32ZM28.525 0.0559978H32.109L21.549 30.2H17.965L28.525 0.0559978ZM50.1878 13.848C52.2571 14.104 53.8358 14.808 54.9238 15.96C56.0118 17.112 56.5558 18.552 56.5558 20.28C56.5558 21.5813 56.2251 22.7653 55.5638 23.832C54.9024 24.8987 53.8998 25.752 52.5558 26.392C51.2331 27.0107 49.6118 27.32 47.6918 27.32C46.0918 27.32 44.5451 27.096 43.0518 26.648C41.5798 26.1787 40.3211 25.5387 39.2758 24.728L41.0678 21.496C41.8784 22.1787 42.8598 22.7227 44.0118 23.128C45.1851 23.512 46.3904 23.704 47.6278 23.704C49.0998 23.704 50.2518 23.4053 51.0838 22.808C51.9371 22.1893 52.3638 21.3573 52.3638 20.312C52.3638 19.2667 51.9584 18.456 51.1478 17.88C50.3584 17.2827 49.1424 16.984 47.4998 16.984H45.4518V14.136L50.5398 8.088H40.3638V4.6H55.6278V7.384L50.1878 13.848ZM68.4208 27.32C66.6288 27.32 65.0288 26.872 63.6208 25.976C62.2128 25.0587 61.1034 23.736 60.2928 22.008C59.4821 20.2587 59.0768 18.1893 59.0768 15.8C59.0768 13.4107 59.4821 11.352 60.2928 9.624C61.1034 7.87467 62.2128 6.552 63.6208 5.656C65.0288 4.73867 66.6288 4.28 68.4208 4.28C70.2128 4.28 71.8128 4.73867 73.2208 5.656C74.6501 6.552 75.7701 7.87467 76.5808 9.624C77.3914 11.352 77.7968 13.4107 77.7968 15.8C77.7968 18.1893 77.3914 20.2587 76.5808 22.008C75.7701 23.736 74.6501 25.0587 73.2208 25.976C71.8128 26.872 70.2128 27.32 68.4208 27.32ZM68.4208 23.704C70.0208 23.704 71.2794 23.0427 72.1968 21.72C73.1354 20.3973 73.6048 18.424 73.6048 15.8C73.6048 13.176 73.1354 11.2027 72.1968 9.88C71.2794 8.55733 70.0208 7.896 68.4208 7.896C66.8421 7.896 65.5834 8.55733 64.6448 9.88C63.7274 11.2027 63.2688 13.176 63.2688 15.8C63.2688 18.424 63.7274 20.3973 64.6448 21.72C65.5834 23.0427 66.8421 23.704 68.4208 23.704Z" fill="#212530"/>
</svg>
