<svg width="24" height="24" viewBox="0 0 24 24" fill="none" xmlns="http://www.w3.org/2000/svg">
<path d="M19.4662 16.1564C19.0014 15.6918 18.6331 15.1398 18.3826 14.5323C18.132 13.9247 18.0042 13.2735 18.0065 12.6163V10.5002C18.0044 9.17144 17.5614 7.8809 16.7469 6.83095C15.9325 5.78099 14.7927 5.03099 13.5061 4.6985V4.50056C13.5061 4.3034 13.4673 4.10816 13.3918 3.92602C13.3163 3.74388 13.2056 3.57841 13.0662 3.43905C12.9267 3.2997 12.7611 3.18919 12.5789 3.11386C12.3967 3.03852 12.2014 2.99983 12.0043 3C11.6063 3 11.2246 3.15809 10.9432 3.4395C10.6618 3.72091 10.5037 4.10259 10.5037 4.50056V4.6985C9.21695 5.03075 8.07682 5.78065 7.26213 6.83062C6.44743 7.8806 6.00424 9.17127 6.00205 10.5002V12.6163C6.00262 13.2821 5.87031 13.9414 5.61286 14.5554C5.35541 15.1694 4.97801 15.7258 4.50277 16.1921C4.29254 16.4016 4.14933 16.6689 4.09135 16.9599C4.03336 17.251 4.06322 17.5527 4.17712 17.8268C4.29029 18.1011 4.48243 18.3356 4.72915 18.5004C4.97586 18.6653 5.26601 18.7531 5.56274 18.7527H9.75281C9.75297 19.0481 9.81135 19.3406 9.92461 19.6135C10.0379 19.8864 10.2038 20.1343 10.4129 20.343C10.6219 20.5517 10.8701 20.7172 11.1432 20.83C11.4162 20.9428 11.7088 21.0007 12.0043 21.0003C12.2997 21.0005 12.5923 20.9424 12.8653 20.8295C13.1383 20.7166 13.3864 20.5509 13.5953 20.3421C13.8043 20.1332 13.9701 19.8853 14.0832 19.6123C14.1963 19.3394 14.2545 19.0468 14.2545 18.7514H18.4433C18.74 18.752 19.0303 18.6642 19.277 18.4994C19.5238 18.3345 19.7159 18.0999 19.8289 17.8255C19.9437 17.5432 19.9705 17.2327 19.9058 16.9348C19.8411 16.637 19.6879 16.3656 19.4662 16.1564V16.1564ZM18.4446 17.2508L5.59977 17.2176C6.20525 16.6151 6.68537 15.8986 7.01241 15.1095C7.33945 14.3204 7.50692 13.4744 7.50516 12.6202V10.5002C7.50651 9.30741 7.98096 8.16383 8.82442 7.32037C9.66787 6.47692 10.8115 6.00247 12.0043 6.00112C13.1966 6.00315 14.3393 6.47793 15.182 7.32135C16.0247 8.16477 16.4986 9.30797 16.4996 10.5002V12.6163C16.4985 13.4797 16.6702 14.3346 17.0047 15.1305C17.3392 15.9265 17.8296 16.6474 18.4471 17.2508H18.4446Z" fill="white"/>
</svg>
