<svg width="16" height="16" viewBox="0 0 16 16" fill="none" xmlns="http://www.w3.org/2000/svg">
<path d="M12.1664 7.16654H8.83318V3.83332C8.83318 3.37334 8.46069 3 7.99986 3C7.53903 3 7.16654 3.37334 7.16654 3.83332V7.16654H3.83332C3.3725 7.16654 3 7.53987 3 7.99986C3 8.45985 3.3725 8.83318 3.83332 8.83318H7.16654V12.1664C7.16654 12.6264 7.53903 12.9997 7.99986 12.9997C8.46069 12.9997 8.83318 12.6264 8.83318 12.1664V8.83318H12.1664C12.6272 8.83318 12.9997 8.45985 12.9997 7.99986C12.9997 7.53987 12.6272 7.16654 12.1664 7.16654Z" fill="#EB5D00"/>
</svg>
