<svg width="128" height="115" viewBox="0 0 128 115" fill="none" xmlns="http://www.w3.org/2000/svg">
<g clip-path="url(#clip0_1_4303)">
<path d="M99.9437 113.955H30.4668V109.165H47.3911H83.0195H99.9437V113.955Z" fill="#78D0F8"/>
<path d="M99.9275 115.016H30.4668C30.1879 115.016 29.9203 114.906 29.7231 114.71C29.5259 114.514 29.415 114.248 29.415 113.971V109.148C29.415 108.871 29.5259 108.605 29.7231 108.41C29.9203 108.214 30.1879 108.104 30.4668 108.104H99.9275C100.206 108.104 100.474 108.214 100.671 108.41C100.868 108.605 100.979 108.871 100.979 109.148V113.971C100.979 114.248 100.868 114.514 100.671 114.71C100.474 114.906 100.206 115.016 99.9275 115.016ZM31.5185 112.926H98.8111V110.209H31.5185V112.926Z" fill="#002B6B"/>
<path d="M77.7615 89.3447L83.02 109.165H47.3916L52.6339 89.3447H77.7615Z" fill="#78D0F8"/>
<path d="M83.0354 110.209H47.4394C47.2779 110.209 47.1185 110.173 46.9729 110.103C46.8274 110.034 46.6993 109.933 46.5981 109.808C46.5022 109.677 46.4364 109.528 46.4057 109.369C46.3749 109.211 46.3798 109.048 46.42 108.891L51.6623 89.0871C51.723 88.8648 51.8558 88.6687 52.0401 88.5292C52.2244 88.3896 52.45 88.3145 52.6817 88.3154H77.7769C78.0086 88.3145 78.2342 88.3896 78.4185 88.5292C78.6028 88.6687 78.7356 88.8648 78.7962 89.0871L83.99 108.666C84.0743 108.819 84.1188 108.99 84.1195 109.165C84.1174 109.304 84.0877 109.442 84.032 109.569C83.9764 109.697 83.8959 109.813 83.7953 109.91C83.6946 110.007 83.5757 110.084 83.4453 110.135C83.3149 110.186 83.1756 110.212 83.0354 110.209ZM48.75 108.12H81.6439L76.9517 90.4373H53.5069L48.75 108.12Z" fill="#002B6B"/>
<path d="M41.9547 89.3607H16.0667C14.4459 89.3523 12.8945 88.7066 11.7515 87.565C10.6084 86.4234 9.9668 84.8786 9.96682 83.2683V71.5176C9.96467 72.195 10.0977 72.8662 10.3581 73.4924C10.6186 74.1185 11.0013 74.6871 11.4842 75.1654C11.9672 75.6437 12.5407 76.0222 13.1717 76.279C13.8027 76.5358 14.4787 76.6658 15.1606 76.6616H115.218C116.59 76.6616 117.906 76.1224 118.879 75.1616C119.852 74.2009 120.403 72.8966 120.412 71.5337V83.2844C120.407 84.8962 119.762 86.4409 118.616 87.5821C117.471 88.7233 115.918 89.3684 114.295 89.3768H41.9547V89.3607ZM62.8916 83.0915C62.8884 83.5469 63.0214 83.9929 63.2737 84.373C63.526 84.7531 63.8862 85.0502 64.3087 85.2267C64.7312 85.4031 65.1969 85.451 65.6468 85.3641C66.0966 85.2772 66.5104 85.0596 66.8356 84.7388C67.1608 84.4179 67.3828 84.0083 67.4734 83.562C67.564 83.1157 67.5191 82.6526 67.3445 82.2317C67.1698 81.8107 66.8733 81.4508 66.4924 81.1975C66.1116 80.9442 65.6637 80.8089 65.2054 80.8089C64.9023 80.8068 64.6018 80.8643 64.3212 80.978C64.0405 81.0918 63.7854 81.2596 63.5703 81.4718C63.3552 81.684 63.1845 81.9363 63.068 82.2143C62.9515 82.4923 62.8916 82.7904 62.8916 83.0915Z" fill="#1B9EDA"/>
<path d="M114.295 90.4055H16.0989C15.1576 90.4034 14.226 90.2172 13.3571 89.8573C12.4883 89.4975 11.6993 88.9712 11.0353 88.3085C10.3712 87.6457 9.84498 86.8595 9.48673 85.9947C9.12848 85.1299 8.94516 84.2034 8.94728 83.2683V71.5175C8.94728 71.2404 9.05812 70.9747 9.25535 70.7787C9.45258 70.5828 9.72005 70.4727 9.99897 70.4727C10.2779 70.4727 10.5454 70.5828 10.7426 70.7787C10.9399 70.9747 11.0507 71.2404 11.0507 71.5175C11.0507 72.0537 11.157 72.5846 11.3635 73.08C11.5701 73.5754 11.8728 74.0255 12.2544 74.4047C12.636 74.7838 13.0891 75.0846 13.5877 75.2898C14.0863 75.495 14.6207 75.6006 15.1604 75.6006H115.218C115.759 75.6027 116.296 75.4987 116.798 75.2947C117.299 75.0906 117.755 74.7905 118.14 74.4113C118.524 74.0322 118.83 73.5815 119.039 73.085C119.249 72.5885 119.358 72.0558 119.36 71.5175C119.36 71.2404 119.47 70.9747 119.668 70.7787C119.865 70.5828 120.132 70.4727 120.411 70.4727C120.69 70.4727 120.958 70.5828 121.155 70.7787C121.352 70.9747 121.463 71.2404 121.463 71.5175V83.2683C121.463 85.1584 120.708 86.9714 119.365 88.3094C118.021 89.6475 116.198 90.4013 114.295 90.4055ZM11.0507 76.1311V83.2683C11.0486 83.929 11.1774 84.5837 11.43 85.195C11.6825 85.8062 12.0538 86.3621 12.5226 86.8308C12.9913 87.2995 13.5484 87.6719 14.162 87.9267C14.7757 88.1815 15.4338 88.3137 16.0989 88.3158H114.295C115.64 88.3116 116.928 87.7779 117.877 86.8318C118.827 85.8856 119.36 84.6042 119.36 83.2683V76.1311C118.223 77.1523 116.75 77.7243 115.218 77.7385H15.1604C13.6374 77.7269 12.1729 77.1541 11.0507 76.1311ZM65.2052 86.3065C64.5396 86.3065 63.8888 86.1103 63.3354 85.7429C62.782 85.3755 62.3506 84.8534 62.0959 84.2424C61.8412 83.6314 61.7745 82.9592 61.9044 82.3106C62.0343 81.662 62.3548 81.0662 62.8254 80.5986C63.2961 80.131 63.8958 79.8126 64.5486 79.6836C65.2014 79.5545 65.8781 79.6207 66.493 79.8738C67.108 80.1269 67.6336 80.5554 68.0034 81.1053C68.3732 81.6551 68.5706 82.3016 68.5706 82.9629C68.5706 83.8497 68.216 84.7001 67.5849 85.3271C66.9537 85.9542 66.0978 86.3065 65.2052 86.3065ZM65.2052 81.7251C64.8972 81.7599 64.6128 81.9062 64.4064 82.1359C64.1999 82.3657 64.0858 82.6629 64.0858 82.9709C64.0858 83.2789 64.1999 83.5761 64.4064 83.8059C64.6128 84.0357 64.8972 84.1819 65.2052 84.2167C65.5148 84.2109 65.8118 84.0936 66.0409 83.8867C66.2701 83.6797 66.4158 83.3972 66.451 83.0915C66.4598 82.9228 66.4341 82.7542 66.3756 82.5956C66.3171 82.4371 66.227 82.2919 66.1107 82.1688C65.9943 82.0457 65.8541 81.9472 65.6985 81.8793C65.5429 81.8113 65.3751 81.7753 65.2052 81.7733V81.7251Z" fill="#002B6B"/>
<path d="M9.99904 13.0373C9.99692 12.2401 10.1532 11.4503 10.4587 10.7131C10.7643 9.97602 11.2133 9.30605 11.7799 8.7416C12.3466 8.17715 13.0197 7.7293 13.7609 7.42374C14.502 7.11818 15.2965 6.96093 16.0989 6.96094H95.381C93.7336 8.74483 92.4724 10.8458 91.6757 13.1337H16.0504V40.4611H9.99904V13.0373Z" fill="#E0F3FC"/>
<path d="M16.0503 41.5052H9.99896C9.72003 41.5052 9.45256 41.3951 9.25533 41.1992C9.0581 41.0032 8.94727 40.7375 8.94727 40.4604V13.0366C8.94726 11.1507 9.7002 9.3418 11.0409 8.00677C12.3816 6.67175 14.2006 5.91959 16.0988 5.91534H95.3809C95.5854 5.91044 95.7867 5.96585 95.9596 6.07453C96.1324 6.18321 96.269 6.34029 96.3521 6.526C96.4351 6.71171 96.461 6.91772 96.4264 7.11801C96.3917 7.31831 96.2982 7.50393 96.1575 7.65146C94.6078 9.33597 93.4188 11.3157 92.6626 13.4706C92.5943 13.6769 92.462 13.8564 92.2847 13.9835C92.1075 14.1105 91.8942 14.1786 91.6756 14.1779H17.102V40.4604C17.102 40.7375 16.9912 41.0032 16.794 41.1992C16.5968 41.3951 16.3292 41.5052 16.0503 41.5052ZM11.0507 39.4155H14.9986V13.133C14.9986 12.8559 15.1094 12.5901 15.3066 12.3942C15.5039 12.1982 15.7714 12.0881 16.0503 12.0881H90.9637C91.536 10.6378 92.2917 9.2658 93.2127 8.00511H16.0988C14.7585 8.00936 13.4745 8.54134 12.5283 9.48446C11.582 10.4276 11.0507 11.7049 11.0507 13.0366V39.4155Z" fill="#002B6B"/>
<path d="M15.1604 76.6611C13.7916 76.6611 12.4788 76.1209 11.5108 75.1592C10.5429 74.1975 9.99902 72.8932 9.99902 71.5332V66.1963H16.0504V70.4723H114.134V36.3131C116.467 35.6088 118.631 34.4382 120.492 32.873V71.4529C120.484 72.8158 119.933 74.12 118.96 75.0808C117.987 76.0416 116.67 76.5808 115.299 76.5808L15.1604 76.6611Z" fill="#E0F3FC"/>
<path d="M115.218 77.69H15.1604C13.5126 77.69 11.9323 77.0396 10.7671 75.882C9.60189 74.7244 8.94727 73.1543 8.94727 71.5171V66.1803C8.94727 65.9032 9.0581 65.6374 9.25533 65.4415C9.45256 65.2455 9.72003 65.1354 9.99896 65.1354H16.0503C16.3292 65.1354 16.5968 65.2455 16.794 65.4415C16.9912 65.6374 17.102 65.9032 17.102 66.1803V69.3953H113.082V36.3131C113.085 36.0904 113.158 35.8742 113.292 35.6954C113.426 35.5165 113.612 35.3839 113.826 35.3164C116.017 34.6624 118.049 33.5681 119.796 32.1015C119.952 31.9733 120.141 31.8917 120.342 31.8661C120.542 31.8405 120.746 31.8719 120.929 31.9568C121.113 32.0382 121.27 32.1713 121.379 32.3398C121.488 32.5083 121.546 32.7048 121.544 32.9052L121.463 71.485C121.465 72.3004 121.305 73.1083 120.992 73.8621C120.679 74.6158 120.219 75.3007 119.639 75.8773C119.058 76.4539 118.369 76.9109 117.61 77.222C116.851 77.533 116.038 77.6921 115.218 77.69ZM11.0507 67.2252V71.5171C11.0507 72.0533 11.157 72.5843 11.3635 73.0797C11.57 73.575 11.8727 74.0251 12.2544 74.4043C12.636 74.7834 13.089 75.0842 13.5877 75.2894C14.0863 75.4946 14.6207 75.6002 15.1604 75.6002H115.218C115.759 75.6023 116.296 75.4984 116.798 75.2943C117.299 75.0903 117.755 74.7901 118.14 74.411C118.524 74.0318 118.83 73.5811 119.039 73.0846C119.249 72.5881 119.358 72.0555 119.36 71.5171V34.9628C118.044 35.847 116.619 36.5601 115.12 37.0847V70.4562C115.12 70.7334 115.01 70.9991 114.812 71.195C114.615 71.391 114.348 71.5011 114.069 71.5011H16.0503C15.7714 71.5011 15.5039 71.391 15.3066 71.195C15.1094 70.9991 14.9986 70.7334 14.9986 70.4562V67.2413L11.0507 67.2252Z" fill="#002B6B"/>
<path d="M7.84731 47.0998C7.58554 47.0998 7.3345 46.9966 7.14941 46.8127C6.96431 46.6288 6.86035 46.3794 6.86035 46.1193V41.4415C6.86452 41.1827 6.9698 40.9357 7.154 40.7527C7.3382 40.5697 7.58684 40.4651 7.84731 40.4609H17.9113C18.1702 40.4652 18.4171 40.5703 18.5988 40.7538C18.7804 40.9372 18.8821 41.1842 18.8821 41.4415V46.1193C18.8842 46.2473 18.8607 46.3745 18.8129 46.4933C18.765 46.6122 18.6939 46.7205 18.6035 46.8117C18.5131 46.903 18.4054 46.9755 18.2865 47.0249C18.1677 47.0744 18.0401 47.0999 17.9113 47.0998H7.84731Z" fill="#C7EAF9"/>
<path d="M17.9114 48.1447H7.81506C7.27568 48.1405 6.75959 47.9258 6.37818 47.5468C5.99677 47.1679 5.7806 46.6552 5.77637 46.1193V41.4415C5.7806 40.9056 5.99677 40.3929 6.37818 40.0139C6.75959 39.635 7.27568 39.4202 7.81506 39.416H17.9114C18.4493 39.4203 18.9636 39.6356 19.3425 40.0149C19.7213 40.3943 19.9339 40.9071 19.9339 41.4415V46.1193C19.9339 46.6537 19.7213 47.1665 19.3425 47.5459C18.9636 47.9252 18.4493 48.1405 17.9114 48.1447ZM7.81506 41.5058V46.1193H17.7658V41.5058H15.9536H7.81506Z" fill="#002B6B"/>
<path d="M24.7393 48.5947V64.6696C24.735 65.0676 24.5729 65.4478 24.2881 65.7277C24.0034 66.0076 23.619 66.1646 23.2184 66.1646H2.57268C2.37372 66.1667 2.17634 66.1296 1.9919 66.0554C1.80747 65.9813 1.63968 65.8715 1.49823 65.7324C1.35678 65.5934 1.24447 65.4279 1.16784 65.2455C1.09121 65.063 1.05175 64.8673 1.05176 64.6696V48.5947C1.05175 48.397 1.09121 48.2013 1.16784 48.0189C1.24447 47.8364 1.35678 47.6709 1.49823 47.5318C1.63968 47.3928 1.80747 47.283 1.9919 47.2088C2.17634 47.1347 2.37372 47.0976 2.57268 47.0997H23.2184C23.619 47.0997 24.0034 47.2567 24.2881 47.5366C24.5729 47.8165 24.735 48.1967 24.7393 48.5947Z" fill="#C7EAF9"/>
<path d="M23.2183 67.2249H2.57261C1.89311 67.2249 1.24123 66.9579 0.759228 66.482C0.27723 66.0061 0.00427363 65.3601 0 64.685V48.6101C0.00427363 47.935 0.27723 47.2891 0.759228 46.8132C1.24123 46.3374 1.89311 46.0703 2.57261 46.0703H23.2183C23.8978 46.0703 24.5498 46.3374 25.0317 46.8132C25.5137 47.2891 25.7867 47.935 25.7909 48.6101V64.685C25.7867 65.3601 25.5137 66.0061 25.0317 66.482C24.5498 66.9579 23.8978 67.2249 23.2183 67.2249ZM2.57261 48.144C2.51177 48.1418 2.45116 48.1519 2.39431 48.1735C2.33747 48.1952 2.28558 48.228 2.24179 48.27C2.19799 48.312 2.16315 48.3623 2.13938 48.418C2.1156 48.4737 2.10339 48.5336 2.10343 48.5941V64.669C2.10339 64.7295 2.1156 64.7893 2.13938 64.845C2.16315 64.9007 2.19799 64.9511 2.24179 64.9931C2.28558 65.0351 2.33747 65.0679 2.39431 65.0896C2.45116 65.1112 2.51177 65.1213 2.57261 65.1191H23.2183C23.34 65.1192 23.457 65.0722 23.5445 64.9883C23.632 64.9043 23.6834 64.7898 23.6875 64.669V48.5941C23.6876 48.5336 23.6753 48.4737 23.6516 48.418C23.6278 48.3623 23.593 48.312 23.5492 48.27C23.5054 48.228 23.4535 48.1952 23.3967 48.1735C23.3398 48.1519 23.2792 48.1418 23.2183 48.144H2.57261Z" fill="#002B6B"/>
<path d="M108.81 1.10938C112.531 1.11266 116.161 2.25181 119.209 4.37264C122.257 6.49347 124.575 9.49351 125.849 12.9666C127.124 16.4397 127.294 20.2181 126.336 23.7902C125.377 27.3623 123.338 30.5556 120.492 32.9377C117.223 35.6739 113.085 37.1717 108.81 37.1654C105.915 37.1624 103.063 36.4711 100.492 35.1492C97.9216 33.8273 95.7066 31.9133 94.0324 29.5671C92.3583 27.2209 91.2737 24.5106 90.8693 21.6628C90.4649 18.8151 90.7524 15.9125 91.7079 13.1977C92.5046 10.9098 93.7657 8.80884 95.4131 7.02494C97.1037 5.16065 99.1702 3.67053 101.478 2.65139C103.786 1.63224 106.284 1.10688 108.81 1.10938Z" fill="#78D0F8"/>
<path d="M108.81 38.0817C104.291 38.0888 99.9136 36.5138 96.4471 33.6331C92.9806 30.7524 90.6465 26.7504 89.8549 22.3299C89.0632 17.9094 89.8646 13.3531 92.1183 9.46131C94.372 5.56952 97.9339 2.5911 102.178 1.04915C106.423 -0.492789 111.078 -0.499628 115.327 1.02983C119.576 2.55928 123.147 5.5272 125.412 9.41235C127.678 13.2975 128.492 17.8514 127.714 22.2742C126.936 26.697 124.613 30.7059 121.156 33.5968C119.194 35.2634 116.909 36.511 114.441 37.2618C112.614 37.8048 110.717 38.0809 108.81 38.0817ZM108.81 2.02563C105.259 2.02276 101.794 3.1164 98.8953 5.1553C95.9966 7.19421 93.8073 10.0776 92.6302 13.4067C92.0021 15.2115 91.6796 17.1072 91.6756 19.0168C91.6784 21.6702 92.3067 24.2859 93.5101 26.6546C94.7134 29.0233 96.4584 31.0792 98.6053 32.6574C100.752 34.2356 103.241 35.2923 105.873 35.743C108.505 36.1936 111.206 36.0256 113.761 35.2525C115.952 34.5984 117.984 33.5042 119.732 32.0375C122.418 29.7982 124.346 26.7917 125.254 23.4263C126.162 20.0609 126.005 16.4995 124.805 13.2256C123.605 9.95168 121.421 7.12382 118.548 5.12592C115.675 3.12802 112.252 2.05682 108.745 2.05776L108.81 2.02563Z" fill="#002B6B"/>
<path d="M71.111 56.2144H54.1543V47.9037C54.1586 46.319 54.7941 44.8005 55.922 43.68C57.0498 42.5594 58.5782 41.9281 60.1733 41.9238H68.8458C70.4408 41.9281 71.9692 42.5594 73.0971 43.68C74.2249 44.8005 74.8605 46.319 74.8647 47.9037V56.2144H71.111Z" fill="#C7EAF9"/>
<path d="M74.8647 57.2593H54.1542C53.8753 57.2593 53.6078 57.1492 53.4106 56.9532C53.2133 56.7573 53.1025 56.4915 53.1025 56.2144V47.9036C53.1025 46.0406 53.8475 44.2538 55.1735 42.9364C56.4995 41.6191 58.2979 40.8789 60.1732 40.8789H68.8457C70.721 40.8789 72.5194 41.6191 73.8454 42.9364C75.1714 44.2538 75.9164 46.0406 75.9164 47.9036V56.2144C75.9164 56.4915 75.8055 56.7573 75.6083 56.9532C75.4111 57.1492 75.1436 57.2593 74.8647 57.2593ZM55.2059 55.1695H73.8129V47.9036C73.8087 46.5961 73.284 45.3434 72.3534 44.4188C71.4228 43.4942 70.1618 42.9729 68.8457 42.9687H60.1732C58.8558 42.9687 57.5924 43.4886 56.6608 44.4141C55.7293 45.3396 55.2059 46.5948 55.2059 47.9036V55.1695Z" fill="#002B6B"/>
<path d="M69.9948 33.6927C69.998 34.803 69.6695 35.8892 69.051 36.8139C68.4325 37.7386 67.5517 38.4602 66.5202 38.8873C65.4886 39.3144 64.3528 39.4278 63.2563 39.2131C62.1599 38.9985 61.1522 38.4654 60.3608 37.6815C59.5695 36.8975 59.0301 35.8979 58.8109 34.8092C58.5917 33.7205 58.7025 32.5917 59.1295 31.5656C59.5564 30.5395 60.2801 29.6624 61.2091 29.0453C62.138 28.4281 63.2305 28.0987 64.348 28.0987C65.0888 28.0965 65.8227 28.2397 66.5077 28.5199C67.1927 28.8 67.8154 29.2117 68.3399 29.7314C68.8645 30.2511 69.2807 30.8685 69.5646 31.5482C69.8486 32.228 69.9948 32.9567 69.9948 33.6927Z" fill="#C7EAF9"/>
<path d="M64.3479 40.3482C63.0231 40.3482 61.728 39.9578 60.6264 39.2266C59.5248 38.4953 58.6663 37.4559 58.1593 36.2399C57.6523 35.0238 57.5197 33.6858 57.7781 32.3948C58.0366 31.1039 58.6746 29.9181 59.6114 28.9873C60.5482 28.0566 61.7417 27.4227 63.0411 27.166C64.3405 26.9092 65.6873 27.041 66.9113 27.5447C68.1353 28.0484 69.1815 28.9014 69.9175 29.9958C70.6536 31.0902 71.0464 32.3769 71.0464 33.6931C71.0464 35.4581 70.3407 37.1509 69.0845 38.3989C67.8283 39.647 66.1245 40.3482 64.3479 40.3482ZM64.3479 29.0957C63.4384 29.0957 62.5494 29.3639 61.7933 29.8662C61.0373 30.3686 60.4483 31.0825 60.101 31.9176C59.7537 32.7528 59.6637 33.6715 59.8423 34.5575C60.0209 35.4436 60.4602 36.257 61.1044 36.8948C61.7487 37.5326 62.569 37.9662 63.4614 38.1405C64.3538 38.3148 65.2783 38.2221 66.1176 37.8741C66.957 37.5261 67.6735 36.9385 68.1765 36.1856C68.6795 35.4327 68.9463 34.5485 68.9431 33.6449C68.9302 32.444 68.4399 31.2968 67.5791 30.4536C66.7183 29.6104 65.5568 29.1396 64.3479 29.1439V29.0957Z" fill="#002B6B"/>
<path d="M64.9631 41.923H60.1091C58.514 41.9272 56.9856 42.5586 55.8578 43.6791C54.7299 44.7997 54.0944 46.3182 54.0901 47.9028V56.2136H74.8005V47.9028C74.7963 46.3182 74.1608 44.7997 73.0329 43.6791C71.9051 42.5586 70.3766 41.9272 68.7816 41.923H64.9631ZM64.3483 39.3028C65.4658 39.306 66.5591 38.9796 67.4899 38.3651C68.4206 37.7506 69.1469 36.8755 69.5767 35.8507C70.0066 34.8259 70.1208 33.6973 69.9047 32.608C69.6887 31.5187 69.1521 30.5176 68.363 29.7314C67.574 28.9452 66.5679 28.4093 65.472 28.1915C64.3762 27.9737 63.24 28.0838 62.2073 28.508C61.1745 28.9321 60.2916 29.6512 59.6704 30.5741C59.0492 31.497 58.7176 32.5823 58.7176 33.6926C58.7155 34.4286 58.8595 35.1577 59.1416 35.8383C59.4236 36.5189 59.838 37.1375 60.361 37.6586C60.8841 38.1798 61.5055 38.5933 62.1897 38.8754C62.8739 39.1575 63.6075 39.3028 64.3483 39.3028ZM16.0509 13.1328H91.7086C90.6021 16.2768 90.3942 19.664 91.1082 22.9183C91.8222 26.1725 93.43 29.1666 95.7532 31.5679C98.0763 33.9692 101.024 35.6839 104.269 36.5215C107.513 37.3591 110.928 37.2868 114.134 36.3128V70.456H16.0509V66.1801H23.2187C23.6193 66.1801 24.0037 66.0231 24.2884 65.7432C24.5732 65.4633 24.7353 65.083 24.7396 64.6851V48.6101C24.7353 48.2122 24.5732 47.832 24.2884 47.5521C24.0037 47.2722 23.6193 47.1152 23.2187 47.1152H17.9116C18.0405 47.1152 18.1681 47.0897 18.2869 47.0403C18.4058 46.9908 18.5135 46.9183 18.6039 46.827C18.6942 46.7357 18.7654 46.6275 18.8132 46.5086C18.861 46.3898 18.8846 46.2626 18.8824 46.1346V41.4568C18.8825 41.1995 18.7807 40.9525 18.5991 40.769C18.4175 40.5856 18.1706 40.4804 17.9116 40.4762H16.0186L16.0509 13.1328Z" fill="#C7EAF9"/>
<path d="M114.134 71.5012H16.0507C15.7718 71.5012 15.5043 71.3911 15.307 71.1951C15.1098 70.9992 14.999 70.7335 14.999 70.4563V66.1804C14.999 65.9033 15.1098 65.6375 15.307 65.4416C15.5043 65.2456 15.7718 65.1355 16.0507 65.1355H23.2184C23.3401 65.1356 23.4571 65.0887 23.5446 65.0047C23.6322 64.9207 23.6835 64.8062 23.6877 64.6854V48.6105C23.6877 48.55 23.6755 48.4902 23.6517 48.4345C23.6279 48.3788 23.5931 48.3284 23.5493 48.2864C23.5055 48.2444 23.4536 48.2116 23.3968 48.1899C23.3399 48.1683 23.2793 48.1582 23.2184 48.1604H17.9114C17.6325 48.1604 17.365 48.0503 17.1677 47.8544C16.9705 47.6584 16.8597 47.3926 16.8597 47.1155C16.8597 46.8384 16.9705 46.5726 17.1677 46.3767C17.365 46.1807 17.6325 46.0707 17.9114 46.0707V41.4572H16.0993C15.8203 41.4572 15.5528 41.3471 15.3556 41.1511C15.1583 40.9552 15.0476 40.6894 15.0476 40.4123V13.0849C15.0476 12.8078 15.1583 12.5421 15.3556 12.3461C15.5528 12.1502 15.8203 12.04 16.0993 12.04H91.757C91.9223 12.0447 92.0843 12.0876 92.2301 12.1651C92.376 12.2426 92.5017 12.3527 92.5974 12.4868C92.6931 12.6208 92.7562 12.7751 92.7816 12.9375C92.807 13.0999 92.7941 13.2659 92.7439 13.4225C92.1159 15.2273 91.7933 17.123 91.7893 19.0326C91.7922 21.686 92.4204 24.3018 93.6238 26.6705C94.8271 29.0392 96.5722 31.095 98.719 32.6732C100.866 34.2514 103.355 35.3081 105.987 35.7588C108.619 36.2094 111.32 36.0415 113.875 35.2683C114.032 35.2206 114.198 35.2101 114.36 35.2377C114.522 35.2652 114.675 35.33 114.807 35.4269C114.939 35.5237 115.047 35.65 115.121 35.7955C115.195 35.9411 115.234 36.1018 115.234 36.265V70.4081C115.241 70.5534 115.217 70.6987 115.164 70.8344C115.112 70.9702 115.031 71.0934 114.927 71.1963C114.824 71.2992 114.7 71.3795 114.563 71.432C114.426 71.4845 114.28 71.5081 114.134 71.5012ZM17.0539 69.4114H113.034V37.6796C111.631 37.9872 110.199 38.1435 108.762 38.1457C103.677 38.1372 98.8026 36.1254 95.2083 32.5514C91.614 28.9774 89.5931 24.1331 89.5888 19.0809C89.5868 17.4254 89.8044 15.777 90.236 14.178H17.1024V39.4156H17.9114C18.4493 39.4199 18.9637 39.6352 19.3425 40.0146C19.7213 40.3939 19.9339 40.9067 19.9339 41.4411V46.1189H23.1699C23.8494 46.1189 24.5013 46.386 24.9833 46.8618C25.4653 47.3377 25.7382 47.9836 25.7425 48.6587V64.7336C25.7382 65.4087 25.4653 66.0547 24.9833 66.5306C24.5013 67.0064 23.8494 67.2735 23.1699 67.2735H17.1024L17.0539 69.4114ZM74.8165 57.2588H54.1546C53.8757 57.2588 53.6082 57.1487 53.4109 56.9528C53.2137 56.7568 53.1029 56.4911 53.1029 56.2139V47.9032C53.1029 46.0401 53.8478 44.2534 55.1738 42.936C56.4999 41.6186 58.2983 40.8785 60.1736 40.8785H68.8461C70.7213 40.8785 72.5198 41.6186 73.8458 42.936C75.1718 44.2534 75.9167 46.0401 75.9167 47.9032V56.2139C75.9167 56.4911 75.8059 56.7568 75.6087 56.9528C75.4114 57.1487 75.144 57.2588 74.865 57.2588H74.8165ZM55.1577 55.1691H73.7648V47.9032C73.7605 46.5956 73.2358 45.3429 72.3052 44.4183C71.3746 43.4938 70.1136 42.9725 68.7975 42.9682H60.125C58.8076 42.9682 57.5442 43.4881 56.6127 44.4136C55.6811 45.3391 55.1577 46.5943 55.1577 47.9032V55.1691ZM64.2995 40.348C62.9746 40.348 61.6795 39.9577 60.578 39.2264C59.4764 38.4952 58.6179 37.4558 58.1109 36.2397C57.6039 35.0237 57.4712 33.6856 57.7297 32.3947C57.9881 31.1037 58.6261 29.9179 59.5629 28.9872C60.4997 28.0565 61.6933 27.4226 62.9927 27.1658C64.2921 26.909 65.6389 27.0408 66.8629 27.5445C68.0869 28.0482 69.133 28.9012 69.8691 29.9957C70.6051 31.0901 70.998 32.3767 70.998 33.693C70.998 35.4497 70.299 37.1351 69.0533 38.3818C67.8075 39.6285 66.1162 40.3353 64.348 40.348H64.2995ZM64.2995 29.0956C63.39 29.0956 62.5009 29.3637 61.7449 29.8661C60.9889 30.3684 60.3999 31.0824 60.0526 31.9175C59.7053 32.7526 59.6152 33.6714 59.7938 34.5574C59.9725 35.4434 60.4117 36.2568 61.056 36.8947C61.7002 37.5325 62.5205 37.966 63.413 38.1404C64.3054 38.3147 65.2298 38.222 66.0692 37.874C66.9085 37.526 67.6251 36.9383 68.1281 36.1854C68.631 35.4326 68.8978 34.5483 68.8946 33.6447C68.8819 32.4521 68.3983 31.3122 67.5479 30.4704C66.6976 29.6285 65.5485 29.1521 64.348 29.1438L64.2995 29.0956Z" fill="#002B6B"/>
<path d="M82.2918 8.00578H47.8769C47.598 8.00578 47.3305 7.89567 47.1333 7.69972C46.936 7.50377 46.8252 7.23804 46.8252 6.96092C46.8252 6.68381 46.936 6.41803 47.1333 6.22208C47.3305 6.02613 47.598 5.91602 47.8769 5.91602H82.2918C82.5707 5.91602 82.8382 6.02613 83.0354 6.22208C83.2327 6.41803 83.3435 6.68381 83.3435 6.96092C83.3435 7.23804 83.2327 7.50377 83.0354 7.69972C82.8382 7.89567 82.5707 8.00578 82.2918 8.00578Z" fill="#002B6B"/>
<path d="M9.99896 14.0821C9.72003 14.0821 9.45256 13.972 9.25533 13.776C9.0581 13.5801 8.94727 13.3144 8.94727 13.0372C8.94726 11.1514 9.7002 9.34247 11.0409 8.00745C12.3816 6.67243 14.2006 5.92027 16.0988 5.91602C16.3778 5.91602 16.6453 6.02613 16.8425 6.22208C17.0398 6.41803 17.1505 6.68381 17.1505 6.96092C17.1505 7.23804 17.0398 7.50377 16.8425 7.69972C16.6453 7.89567 16.3778 8.00578 16.0988 8.00578C14.7585 8.01004 13.4745 8.54202 12.5283 9.48514C11.582 10.4283 11.0507 11.7056 11.0507 13.0372C11.0507 13.3144 10.9399 13.5801 10.7426 13.776C10.5454 13.972 10.2779 14.0821 9.99896 14.0821Z" fill="#002B6B"/>
<path d="M52.6333 90.4055H16.0989C15.1576 90.4034 14.226 90.2172 13.3571 89.8573C12.4883 89.4975 11.6993 88.9712 11.0353 88.3085C10.3712 87.6457 9.84498 86.8595 9.48673 85.9947C9.12848 85.1299 8.94516 84.2034 8.94728 83.2683V71.5175C8.94728 71.2404 9.05812 70.9747 9.25535 70.7787C9.45258 70.5828 9.72005 70.4727 9.99897 70.4727C10.2779 70.4727 10.5454 70.5828 10.7426 70.7787C10.9399 70.9747 11.0507 71.2404 11.0507 71.5175V83.2683C11.0486 83.929 11.1774 84.5837 11.43 85.195C11.6825 85.8062 12.0538 86.3621 12.5226 86.8308C12.9913 87.2995 13.5484 87.6719 14.162 87.9267C14.7757 88.1815 15.4338 88.3137 16.0989 88.3158H52.6333C52.9122 88.3158 53.1797 88.4259 53.377 88.6218C53.5742 88.8178 53.685 89.0836 53.685 89.3607C53.685 89.6378 53.5742 89.9036 53.377 90.0995C53.1797 90.2955 52.9122 90.4055 52.6333 90.4055Z" fill="#002B6B"/>
<path d="M114.296 90.4049H77.7773C77.4983 90.4049 77.2308 90.2948 77.0336 90.0989C76.8364 89.9029 76.7256 89.6371 76.7256 89.36C76.7256 89.0829 76.8364 88.8171 77.0336 88.6212C77.2308 88.4252 77.4983 88.3152 77.7773 88.3152H114.312C115.656 88.3109 116.944 87.7772 117.894 86.8311C118.843 85.885 119.376 84.6035 119.376 83.2676V39.5117C119.376 39.2346 119.487 38.9688 119.684 38.7729C119.881 38.5769 120.149 38.4668 120.428 38.4668C120.707 38.4668 120.974 38.5769 121.171 38.7729C121.369 38.9688 121.479 39.2346 121.479 39.5117V83.2676C121.479 85.1605 120.723 86.9759 119.375 88.3144C118.028 89.6529 116.201 90.4049 114.296 90.4049Z" fill="#002B6B"/>
<path d="M83.0198 110.209C82.7852 110.212 82.5566 110.136 82.3714 109.993C82.1862 109.85 82.0554 109.648 82.0004 109.422L76.9523 90.4052H53.5075L48.4755 109.422C48.3996 109.689 48.2225 109.917 47.9812 110.058C47.74 110.199 47.4533 110.242 47.1811 110.177C47.0469 110.142 46.9212 110.081 46.811 109.997C46.7009 109.913 46.6085 109.808 46.5394 109.688C46.4702 109.569 46.4255 109.437 46.4079 109.3C46.3903 109.163 46.4001 109.024 46.4368 108.891L51.6791 89.0871C51.7397 88.8648 51.8725 88.6687 52.0568 88.5292C52.2412 88.3896 52.4667 88.3145 52.6985 88.3154H77.7775C78.0092 88.3145 78.2347 88.3896 78.4191 88.5292C78.6034 88.6687 78.7362 88.8648 78.7968 89.0871L84.0391 108.891C84.0781 109.024 84.0896 109.164 84.073 109.301C84.0564 109.439 84.0121 109.572 83.9426 109.692C83.8731 109.812 83.7799 109.917 83.6686 110C83.5573 110.084 83.4302 110.144 83.2948 110.177L83.0198 110.209Z" fill="#002B6B"/>
<path d="M99.9275 115.016H30.4668C30.1879 115.016 29.9203 114.906 29.7231 114.71C29.5259 114.514 29.415 114.248 29.415 113.971V109.148C29.415 108.871 29.5259 108.605 29.7231 108.41C29.9203 108.214 30.1879 108.104 30.4668 108.104H99.9275C100.206 108.104 100.474 108.214 100.671 108.41C100.868 108.605 100.979 108.871 100.979 109.148V113.971C100.979 114.248 100.868 114.514 100.671 114.71C100.474 114.906 100.206 115.016 99.9275 115.016ZM31.5185 112.926H98.8111V110.209H31.5185V112.926Z" fill="#002B6B"/>
<path d="M16.0507 41.505C15.7718 41.505 15.5043 41.3949 15.307 41.199C15.1098 41.003 14.999 40.7373 14.999 40.4602V13.1328C14.999 12.8557 15.1098 12.5899 15.307 12.394C15.5043 12.198 15.7718 12.0879 16.0507 12.0879H91.7084C91.9873 12.0879 92.2548 12.198 92.4521 12.394C92.6493 12.5899 92.7601 12.8557 92.7601 13.1328C92.7601 13.4099 92.6493 13.6756 92.4521 13.8716C92.2548 14.0675 91.9873 14.1777 91.7084 14.1777H17.1024V40.4602C17.1024 40.7373 16.9916 41.003 16.7944 41.199C16.5972 41.3949 16.3296 41.505 16.0507 41.505Z" fill="#002B6B"/>
<path d="M114.134 71.5014H16.0507C15.7718 71.5014 15.5043 71.3913 15.307 71.1954C15.1098 70.9994 14.999 70.7337 14.999 70.4566V66.1806C14.999 65.9035 15.1098 65.6377 15.307 65.4418C15.5043 65.2458 15.7718 65.1357 16.0507 65.1357C16.3296 65.1357 16.5972 65.2458 16.7944 65.4418C16.9916 65.6377 17.1024 65.9035 17.1024 66.1806V69.3956H113.082V36.3134C113.086 36.0376 113.199 35.7742 113.395 35.5792C113.591 35.3841 113.856 35.2727 114.134 35.2686C114.41 35.2685 114.675 35.3764 114.872 35.5689C115.069 35.7614 115.181 36.0231 115.186 36.2974V70.4566C115.186 70.7337 115.075 70.9994 114.878 71.1954C114.68 71.3913 114.413 71.5014 114.134 71.5014Z" fill="#002B6B"/>
<path d="M65.2053 86.3063C64.5397 86.3063 63.889 86.1102 63.3355 85.7428C62.7821 85.3754 62.3507 84.8532 62.096 84.2422C61.8413 83.6313 61.7747 82.959 61.9045 82.3104C62.0344 81.6618 62.3549 81.0661 62.8256 80.5985C63.2962 80.1308 63.8959 79.8124 64.5487 79.6834C65.2016 79.5544 65.8782 79.6206 66.4932 79.8736C67.1081 80.1267 67.6337 80.5553 68.0035 81.1051C68.3733 81.655 68.5707 82.3014 68.5707 82.9627C68.5707 83.8495 68.2161 84.6999 67.585 85.327C66.9539 85.954 66.0979 86.3063 65.2053 86.3063ZM65.2053 81.7249C64.8973 81.7598 64.6129 81.906 64.4065 82.1358C64.2 82.3656 64.0859 82.6627 64.0859 82.9707C64.0859 83.2787 64.2 83.576 64.4065 83.8057C64.6129 84.0355 64.8973 84.1818 65.2053 84.2166C65.5149 84.2108 65.8119 84.0935 66.0411 83.8865C66.2702 83.6796 66.4159 83.397 66.4511 83.0913C66.4599 82.9227 66.4342 82.754 66.3757 82.5955C66.3173 82.4369 66.2271 82.2918 66.1108 82.1687C65.9944 82.0456 65.8542 81.9471 65.6986 81.8791C65.543 81.8112 65.3753 81.7751 65.2053 81.7732V81.7249Z" fill="#002B6B"/>
<path d="M9.99896 41.5055C9.72003 41.5055 9.45256 41.3953 9.25533 41.1994C9.0581 41.0034 8.94727 40.7377 8.94727 40.4606V12.1044C8.94727 10.4673 9.60189 8.8972 10.7671 7.73958C11.9323 6.58196 13.5126 5.93164 15.1604 5.93164H47.8763C48.1553 5.93164 48.4228 6.04171 48.62 6.23766C48.8172 6.43361 48.9281 6.69938 48.9281 6.9765C48.9281 7.25362 48.8172 7.51939 48.62 7.71535C48.4228 7.9113 48.1553 8.02136 47.8763 8.02136H15.1604C14.0689 8.02561 13.0236 8.4594 12.2534 9.22767C11.4831 9.99594 11.0507 11.0361 11.0507 12.1205V40.4766C11.0464 40.751 10.9338 41.0126 10.737 41.2051C10.5402 41.3976 10.2751 41.5055 9.99896 41.5055Z" fill="#002B6B"/>
<path d="M115.218 77.6899H15.1604C13.5126 77.6899 11.9323 77.0396 10.7671 75.8819C9.60189 74.7243 8.94727 73.1542 8.94727 71.5171V66.1803C8.94727 65.9032 9.0581 65.6374 9.25533 65.4414C9.45256 65.2455 9.72003 65.1354 9.99896 65.1354C10.2779 65.1354 10.5454 65.2455 10.7426 65.4414C10.9399 65.6374 11.0507 65.9032 11.0507 66.1803V71.5171C11.0507 72.0533 11.157 72.5842 11.3635 73.0796C11.57 73.575 11.8727 74.0251 12.2544 74.4043C12.636 74.7834 13.089 75.0842 13.5877 75.2894C14.0863 75.4946 14.6207 75.6002 15.1604 75.6002H115.218C115.759 75.6023 116.296 75.4983 116.798 75.2943C117.299 75.0902 117.755 74.7901 118.14 74.4109C118.524 74.0318 118.83 73.5811 119.039 73.0846C119.249 72.5881 119.358 72.0554 119.36 71.5171L119.441 32.8569C119.445 32.5826 119.557 32.321 119.754 32.1285C119.951 31.936 120.216 31.8281 120.492 31.8281C120.771 31.8281 121.039 31.9382 121.236 32.1342C121.433 32.3301 121.544 32.5959 121.544 32.873L121.463 71.4529C121.469 72.271 121.313 73.0823 121.001 73.8398C120.69 74.5973 120.231 75.2859 119.65 75.8659C119.069 76.446 118.378 76.9058 117.618 77.2189C116.857 77.532 116.041 77.6921 115.218 77.6899Z" fill="#002B6B"/>
<path d="M95.4139 8.00578H82.2919C82.013 8.00578 81.7455 7.89567 81.5483 7.69972C81.351 7.50377 81.2402 7.23804 81.2402 6.96092C81.2402 6.68381 81.351 6.41803 81.5483 6.22208C81.7455 6.02613 82.013 5.91602 82.2919 5.91602H95.4139C95.6928 5.91602 95.9603 6.02613 96.1576 6.22208C96.3548 6.41803 96.4656 6.68381 96.4656 6.96092C96.4656 7.23804 96.3548 7.50377 96.1576 7.69972C95.9603 7.89567 95.6928 8.00578 95.4139 8.00578Z" fill="#002B6B"/>
<path d="M64.3479 40.3482C63.0231 40.3482 61.728 39.9578 60.6264 39.2266C59.5248 38.4953 58.6663 37.4559 58.1593 36.2399C57.6523 35.0238 57.5197 33.6858 57.7781 32.3948C58.0366 31.1039 58.6746 29.9181 59.6114 28.9873C60.5482 28.0566 61.7417 27.4227 63.0411 27.166C64.3405 26.9092 65.6873 27.041 66.9113 27.5447C68.1353 28.0484 69.1815 28.9014 69.9175 29.9958C70.6536 31.0902 71.0464 32.3769 71.0464 33.6931C71.0464 35.4581 70.3407 37.1509 69.0845 38.3989C67.8283 39.647 66.1245 40.3482 64.3479 40.3482ZM64.3479 29.0957C63.4384 29.0957 62.5494 29.3639 61.7933 29.8662C61.0373 30.3686 60.4483 31.0825 60.101 31.9176C59.7537 32.7528 59.6637 33.6715 59.8423 34.5575C60.0209 35.4436 60.4602 36.257 61.1044 36.8948C61.7487 37.5326 62.569 37.9662 63.4614 38.1405C64.3538 38.3148 65.2783 38.2221 66.1176 37.8741C66.957 37.5261 67.6735 36.9385 68.1765 36.1856C68.6795 35.4327 68.9463 34.5485 68.9431 33.6449C68.9302 32.444 68.4399 31.2968 67.5791 30.4536C66.7183 29.6104 65.5568 29.1396 64.3479 29.1439V29.0957Z" fill="#002B6B"/>
<path d="M57.9081 57.2585C57.6292 57.2585 57.3617 57.1484 57.1645 56.9525C56.9672 56.7565 56.8564 56.4908 56.8564 56.2136V51.6484C56.8564 51.3713 56.9672 51.1055 57.1645 50.9095C57.3617 50.7136 57.6292 50.6035 57.9081 50.6035C58.1871 50.6035 58.4546 50.7136 58.6518 50.9095C58.849 51.1055 58.9598 51.3713 58.9598 51.6484V56.2136C58.9598 56.4908 58.849 56.7565 58.6518 56.9525C58.4546 57.1484 58.1871 57.2585 57.9081 57.2585Z" fill="#002B6B"/>
<path d="M74.8647 57.2593C74.5857 57.2593 74.3182 57.1492 74.121 56.9532C73.9238 56.7573 73.8129 56.4915 73.8129 56.2144V47.9036C73.8087 46.5961 73.284 45.3434 72.3534 44.4188C71.4228 43.4942 70.1618 42.9729 68.8457 42.9687H60.1732C58.8558 42.9687 57.5924 43.4886 56.6608 44.4141C55.7293 45.3396 55.2059 46.5948 55.2059 47.9036V56.2144C55.2059 56.4915 55.0951 56.7573 54.8979 56.9532C54.7007 57.1492 54.4332 57.2593 54.1542 57.2593C53.8753 57.2593 53.6078 57.1492 53.4106 56.9532C53.2133 56.7573 53.1025 56.4915 53.1025 56.2144V47.9036C53.1025 46.0406 53.8475 44.2538 55.1735 42.9364C56.4995 41.6191 58.2979 40.8789 60.1732 40.8789H68.8457C70.721 40.8789 72.5194 41.6191 73.8454 42.9364C75.1714 44.2538 75.9164 46.0406 75.9164 47.9036V56.2144C75.9164 56.4915 75.8055 56.7573 75.6083 56.9532C75.4111 57.1492 75.1436 57.2593 74.8647 57.2593Z" fill="#002B6B"/>
<path d="M71.1109 57.2585C70.8304 57.2585 70.5612 57.149 70.3614 56.9535C70.1616 56.758 70.0472 56.4922 70.043 56.2137V51.6484C70.075 51.3915 70.2004 51.1552 70.3956 50.9838C70.5908 50.8124 70.8423 50.7178 71.1028 50.7178C71.3633 50.7178 71.6148 50.8124 71.8099 50.9838C72.0051 51.1552 72.1305 51.3915 72.1626 51.6484V56.2137C72.1584 56.4895 72.0462 56.7528 71.8499 56.9479C71.6536 57.1429 71.3885 57.2544 71.1109 57.2585Z" fill="#002B6B"/>
<path d="M64.4931 54.1568C64.2142 54.1568 63.9467 54.0467 63.7494 53.8508C63.5522 53.6548 63.4414 53.3891 63.4414 53.1119V44.7851C63.4414 44.508 63.5522 44.2423 63.7494 44.0463C63.9467 43.8503 64.2142 43.7402 64.4931 43.7402C64.772 43.7402 65.0395 43.8503 65.2368 44.0463C65.434 44.2423 65.5448 44.508 65.5448 44.7851V53.1119C65.5448 53.3891 65.434 53.6548 65.2368 53.8508C65.0395 54.0467 64.772 54.1568 64.4931 54.1568Z" fill="#002B6B"/>
<path d="M66.645 45.8134H62.3574C62.0784 45.8134 61.8109 45.7033 61.6137 45.5073C61.4164 45.3114 61.3057 45.0456 61.3057 44.7685C61.3057 44.4914 61.4164 44.2256 61.6137 44.0296C61.8109 43.8337 62.0784 43.7236 62.3574 43.7236H66.645C66.924 43.7236 67.1915 43.8337 67.3887 44.0296C67.5859 44.2256 67.6967 44.4914 67.6967 44.7685C67.6967 45.0456 67.5859 45.3114 67.3887 45.5073C67.1915 45.7033 66.924 45.8134 66.645 45.8134Z" fill="#002B6B"/>
<path d="M74.8647 57.2587H54.1542C53.8753 57.2587 53.6078 57.1486 53.4106 56.9527C53.2133 56.7567 53.1025 56.4909 53.1025 56.2138C53.1025 55.9367 53.2133 55.6709 53.4106 55.475C53.6078 55.279 53.8753 55.1689 54.1542 55.1689H74.8647C75.1436 55.1689 75.4111 55.279 75.6083 55.475C75.8055 55.6709 75.9164 55.9367 75.9164 56.2138C75.9164 56.4909 75.8055 56.7567 75.6083 56.9527C75.4111 57.1486 75.1436 57.2587 74.8647 57.2587Z" fill="#002B6B"/>
<path d="M108.81 38.0817C104.291 38.0888 99.9136 36.5138 96.4471 33.6331C92.9806 30.7524 90.6465 26.7504 89.8549 22.3299C89.0632 17.9094 89.8646 13.3531 92.1183 9.46131C94.372 5.56952 97.9339 2.5911 102.178 1.04915C106.423 -0.492789 111.078 -0.499628 115.327 1.02983C119.576 2.55928 123.147 5.5272 125.412 9.41235C127.678 13.2975 128.492 17.8514 127.714 22.2742C126.936 26.697 124.613 30.7059 121.156 33.5968C119.194 35.2634 116.909 36.511 114.441 37.2618C112.614 37.8048 110.717 38.0809 108.81 38.0817ZM108.81 2.02563C105.259 2.02276 101.794 3.1164 98.8953 5.1553C95.9966 7.19421 93.8073 10.0776 92.6302 13.4067C92.0021 15.2115 91.6796 17.1072 91.6756 19.0168C91.6784 21.6702 92.3067 24.2859 93.5101 26.6546C94.7134 29.0233 96.4584 31.0792 98.6053 32.6574C100.752 34.2356 103.241 35.2923 105.873 35.743C108.505 36.1936 111.206 36.0256 113.761 35.2525C115.952 34.5984 117.984 33.5042 119.732 32.0375C122.418 29.7982 124.346 26.7917 125.254 23.4263C126.162 20.0609 126.005 16.4995 124.805 13.2256C123.605 9.95168 121.421 7.12382 118.548 5.12592C115.675 3.12802 112.252 2.05682 108.745 2.05776L108.81 2.02563Z" fill="#002B6B"/>
<path d="M104.814 24.6267H104.523C104.247 24.5472 104.014 24.3622 103.876 24.1123L100.138 17.0394C100.073 16.918 100.033 16.7851 100.019 16.6483C100.006 16.5115 100.02 16.3734 100.061 16.242C100.102 16.1106 100.168 15.9884 100.256 15.8825C100.344 15.7766 100.452 15.689 100.575 15.6248C100.822 15.4986 101.11 15.4734 101.375 15.5545C101.641 15.6355 101.865 15.8164 101.999 16.0588L105.235 22.1673L119.958 13.5833C120.2 13.4468 120.485 13.4091 120.754 13.4781C121.023 13.5471 121.254 13.7174 121.398 13.9529C121.54 14.1917 121.58 14.4766 121.511 14.7449C121.441 15.0132 121.267 15.243 121.026 15.3836L105.283 24.4821C105.14 24.5659 104.98 24.6154 104.814 24.6267Z" fill="#002B6B"/>
<path d="M23.2183 67.2249H2.57261C1.89311 67.2249 1.24123 66.9579 0.759228 66.482C0.27723 66.0061 0.00427363 65.3601 0 64.685V48.6101C0.00427363 47.935 0.27723 47.2891 0.759228 46.8132C1.24123 46.3374 1.89311 46.0703 2.57261 46.0703H7.84731C8.12624 46.0703 8.39375 46.1804 8.59098 46.3763C8.78822 46.5723 8.899 46.8381 8.899 47.1152C8.899 47.3923 8.78822 47.6581 8.59098 47.854C8.39375 48.05 8.12624 48.16 7.84731 48.16H2.57261C2.51177 48.1579 2.45116 48.1679 2.39431 48.1896C2.33747 48.2112 2.28558 48.244 2.24179 48.2861C2.19799 48.3281 2.16315 48.3784 2.13938 48.4341C2.1156 48.4898 2.10339 48.5496 2.10343 48.6101V64.685C2.10339 64.7455 2.1156 64.8054 2.13938 64.8611C2.16315 64.9168 2.19799 64.9672 2.24179 65.0092C2.28558 65.0512 2.33747 65.084 2.39431 65.1056C2.45116 65.1273 2.51177 65.1373 2.57261 65.1351H23.2183C23.34 65.1352 23.457 65.0883 23.5445 65.0044C23.632 64.9204 23.6833 64.8059 23.6875 64.685V48.6101C23.6876 48.5496 23.6753 48.4898 23.6516 48.4341C23.6278 48.3784 23.593 48.3281 23.5492 48.2861C23.5054 48.244 23.4535 48.2112 23.3967 48.1896C23.3398 48.1679 23.2792 48.1579 23.2183 48.16H17.9113C17.6323 48.16 17.3648 48.05 17.1676 47.854C16.9704 47.6581 16.8596 47.3923 16.8596 47.1152C16.8596 46.8381 16.9704 46.5723 17.1676 46.3763C17.3648 46.1804 17.6323 46.0703 17.9113 46.0703H23.186C23.8655 46.0703 24.5174 46.3374 24.9994 46.8132C25.4814 47.2891 25.7543 47.935 25.7586 48.6101V64.685C25.7544 65.3546 25.4859 65.9958 25.0109 66.4708C24.5359 66.9457 23.8922 67.2165 23.2183 67.2249Z" fill="#002B6B"/>
<path d="M17.9114 48.1447H7.81506C7.27568 48.1405 6.75959 47.9258 6.37818 47.5468C5.99677 47.1679 5.7806 46.6552 5.77637 46.1193V41.4415C5.7806 40.9056 5.99677 40.3929 6.37818 40.0139C6.75959 39.635 7.27568 39.4202 7.81506 39.416H17.9114C18.4493 39.4203 18.9636 39.6356 19.3425 40.0149C19.7213 40.3943 19.9339 40.9071 19.9339 41.4415V46.1193C19.9339 46.6537 19.7213 47.1665 19.3425 47.5459C18.9636 47.9252 18.4493 48.1405 17.9114 48.1447ZM7.81506 41.5058V46.1193H17.7658V41.5058H15.9536H7.81506Z" fill="#002B6B"/>
<path d="M17.814 53.6903H7.97649C7.69757 53.6903 7.4301 53.5802 7.23287 53.3843C7.03564 53.1883 6.9248 52.9226 6.9248 52.6454C6.9248 52.3683 7.03564 52.1026 7.23287 51.9066C7.4301 51.7107 7.69757 51.6006 7.97649 51.6006H17.814C18.0929 51.6006 18.3604 51.7107 18.5576 51.9066C18.7549 52.1026 18.8657 52.3683 18.8657 52.6454C18.8657 52.9226 18.7549 53.1883 18.5576 53.3843C18.3604 53.5802 18.0929 53.6903 17.814 53.6903Z" fill="#002B6B"/>
<path d="M12.8789 58.5772C12.6 58.5772 12.3324 58.4672 12.1352 58.2712C11.938 58.0753 11.8271 57.8095 11.8271 57.5324V52.7099C11.8271 52.4328 11.938 52.167 12.1352 51.9711C12.3324 51.7751 12.6 51.665 12.8789 51.665C13.1578 51.665 13.4253 51.7751 13.6225 51.9711C13.8197 52.167 13.9306 52.4328 13.9306 52.7099V57.5324C13.9306 57.6696 13.9033 57.8055 13.8505 57.9322C13.7976 58.059 13.7202 58.1742 13.6225 58.2712C13.5249 58.3682 13.4089 58.4452 13.2813 58.4977C13.1537 58.5502 13.017 58.5772 12.8789 58.5772Z" fill="#002B6B"/>
</g>
<defs>
<clipPath id="clip0_1_4303">
<rect width="128" height="115" fill="white"/>
</clipPath>
</defs>
</svg>
