<svg width="16" height="16" viewBox="0 0 16 16" fill="none" xmlns="http://www.w3.org/2000/svg">
<path d="M10.998 13.996H5.00212C3.89418 13.996 2.99805 13.0999 2.99805 11.992V6.01233C2.99805 4.08973 4.5622 2.50928 6.5011 2.50928H10.998C12.106 2.50928 13.0021 3.40541 13.0021 4.51335V11.992C13.0021 13.0999 12.106 13.996 10.998 13.996ZM6.5011 3.51946C5.11617 3.51946 4.00823 4.6437 4.00823 6.01233V11.992C4.00823 12.5459 4.46444 12.9859 5.00212 12.9859H10.998C11.552 12.9859 11.9919 12.5296 11.9919 11.992V4.51335C11.9919 3.95938 11.5357 3.51946 10.998 3.51946H6.5011ZM10.493 8.00011C10.493 7.72313 10.2649 7.49502 9.98786 7.49502H5.99601C5.71902 7.49502 5.49092 7.72313 5.49092 8.00011C5.49092 8.2771 5.71902 8.5052 5.99601 8.5052H9.98786C10.2811 8.5052 10.493 8.2771 10.493 8.00011ZM10.493 10.493C10.493 10.216 10.2649 9.98789 9.98786 9.98789H5.99601C5.71902 9.98789 5.49092 10.216 5.49092 10.493C5.49092 10.77 5.71902 10.9981 5.99601 10.9981H9.98786C10.2811 10.9981 10.493 10.77 10.493 10.493Z" fill="#616E8E"/>
</svg>
