<svg width="16" height="16" viewBox="0 0 16 16" fill="none" xmlns="http://www.w3.org/2000/svg">
<path d="M2.66667 13.7H13.3333C13.5101 13.7 13.6797 13.7684 13.8047 13.8903C13.9298 14.0122 14 14.1776 14 14.35C14 14.5223 13.9298 14.6877 13.8047 14.8096C13.6797 14.9315 13.5101 15 13.3333 15H2.66667C2.48986 15 2.32029 14.9315 2.19526 14.8096C2.07024 14.6877 2 14.5223 2 14.35C2 14.1776 2.07024 14.0122 2.19526 13.8903C2.32029 13.7684 2.48986 13.7 2.66667 13.7Z" fill="#002B6B" stroke="#002B6B" stroke-width="0.3"/>
<path d="M7.317 9.47133L7.28841 2.65005C7.28841 2.47766 7.35865 2.31233 7.48367 2.19043C7.60869 2.06853 7.77826 2.00005 7.95508 2.00005C8.13189 2.00005 8.30145 2.06853 8.42648 2.19043C8.5515 2.31233 8.62174 2.47766 8.62174 2.65005L8.65034 9.47133L10.179 7.98088C10.2405 7.9188 10.3141 7.86928 10.3954 7.83521C10.4767 7.80115 10.5642 7.78321 10.6527 7.78246C10.7413 7.78171 10.829 7.79816 10.911 7.83084C10.9929 7.86353 11.0673 7.91179 11.1299 7.97282C11.1925 8.03385 11.242 8.10643 11.2756 8.18631C11.3091 8.26619 11.3259 8.35178 11.3252 8.43809C11.3244 8.52439 11.306 8.60969 11.2711 8.68899C11.2361 8.76829 11.1853 8.84002 11.1217 8.89998L8.455 11.5C8.39294 11.5602 8.31931 11.6079 8.23834 11.6404C8.15771 11.6734 8.07113 11.6904 7.98367 11.6904C7.89621 11.6904 7.80963 11.6734 7.729 11.6404C7.64803 11.6079 7.5744 11.5602 7.51234 11.5L4.84567 8.89998C4.72423 8.77739 4.65703 8.61319 4.65855 8.44277C4.66007 8.27234 4.73019 8.10931 4.85379 7.9888C4.9774 7.86828 5.1446 7.79992 5.3194 7.79844C5.4942 7.79696 5.6626 7.86247 5.78834 7.98088L7.317 9.47133Z" fill="#002B6B" stroke="#002B6B" stroke-width="0.3"/>
</svg>
