<svg width="60" height="31" viewBox="0 0 60 31" fill="none" xmlns="http://www.w3.org/2000/svg">
<path d="M8.952 27.32C7.224 27.32 5.54933 27.0747 3.928 26.584C2.328 26.0933 1.05867 25.4427 0.12 24.632L1.56 21.4C2.47733 22.1253 3.59733 22.7227 4.92 23.192C6.264 23.64 7.608 23.864 8.952 23.864C10.616 23.864 11.8533 23.5973 12.664 23.064C13.496 22.5307 13.912 21.8267 13.912 20.952C13.912 20.312 13.6773 19.7893 13.208 19.384C12.76 18.9573 12.184 18.6267 11.48 18.392C10.776 18.1573 9.816 17.8907 8.6 17.592C6.89333 17.1867 5.50667 16.7813 4.44 16.376C3.39467 15.9707 2.488 15.3413 1.72 14.488C0.973333 13.6133 0.6 12.44 0.6 10.968C0.6 9.73067 0.930667 8.61067 1.592 7.608C2.27467 6.584 3.288 5.77333 4.632 5.176C5.99733 4.57867 7.66133 4.28 9.624 4.28C10.9893 4.28 12.3333 4.45067 13.656 4.792C14.9787 5.13333 16.12 5.624 17.08 6.264L15.768 9.496C14.7867 8.92 13.7627 8.48267 12.696 8.184C11.6293 7.88533 10.5947 7.736 9.592 7.736C7.94933 7.736 6.72267 8.01333 5.912 8.568C5.12267 9.12267 4.728 9.85867 4.728 10.776C4.728 11.416 4.952 11.9387 5.4 12.344C5.86933 12.7493 6.456 13.0693 7.16 13.304C7.864 13.5387 8.824 13.8053 10.04 14.104C11.704 14.488 13.0693 14.8933 14.136 15.32C15.2027 15.7253 16.1093 16.3547 16.856 17.208C17.624 18.0613 18.008 19.2133 18.008 20.664C18.008 21.9013 17.6667 23.0213 16.984 24.024C16.3227 25.0267 15.3093 25.8267 13.944 26.424C12.5787 27.0213 10.9147 27.32 8.952 27.32ZM28.525 0.0559978H32.109L21.549 30.2H17.965L28.525 0.0559978ZM49.9958 27.32C48.2038 27.32 46.6038 26.872 45.1958 25.976C43.7878 25.0587 42.6784 23.736 41.8678 22.008C41.0571 20.2587 40.6518 18.1893 40.6518 15.8C40.6518 13.4107 41.0571 11.352 41.8678 9.624C42.6784 7.87467 43.7878 6.552 45.1958 5.656C46.6038 4.73867 48.2038 4.28 49.9958 4.28C51.7878 4.28 53.3878 4.73867 54.7958 5.656C56.2251 6.552 57.3451 7.87467 58.1558 9.624C58.9664 11.352 59.3718 13.4107 59.3718 15.8C59.3718 18.1893 58.9664 20.2587 58.1558 22.008C57.3451 23.736 56.2251 25.0587 54.7958 25.976C53.3878 26.872 51.7878 27.32 49.9958 27.32ZM49.9958 23.704C51.5958 23.704 52.8544 23.0427 53.7718 21.72C54.7104 20.3973 55.1798 18.424 55.1798 15.8C55.1798 13.176 54.7104 11.2027 53.7718 9.88C52.8544 8.55733 51.5958 7.896 49.9958 7.896C48.4171 7.896 47.1584 8.55733 46.2198 9.88C45.3024 11.2027 44.8438 13.176 44.8438 15.8C44.8438 18.424 45.3024 20.3973 46.2198 21.72C47.1584 23.0427 48.4171 23.704 49.9958 23.704Z" fill="#212530"/>
</svg>
