<svg width="32" height="32" viewBox="0 0 32 32" fill="none" xmlns="http://www.w3.org/2000/svg">
<rect x="0.5" y="0.5" width="31" height="31" rx="5.5" stroke="#616E8E"/>
<path d="M24.5499 6.66675H20.2422C19.8099 6.66675 19.459 7.01763 19.459 7.44996C19.459 7.8823 19.8099 8.23318 20.2422 8.23318H22.6592L16.9472 13.9452C16.6413 14.251 16.6413 14.7468 16.9472 15.0526C17.1003 15.2058 17.3004 15.2821 17.5009 15.2821C17.7014 15.2821 17.9015 15.2058 18.0546 15.0526L23.7667 9.34065V11.7577C23.7667 12.19 24.1176 12.5409 24.5499 12.5409C24.9823 12.5409 25.3332 12.19 25.3332 11.7577V7.44996C25.3332 7.01763 24.9823 6.66675 24.5499 6.66675Z" fill="#616E8E"/>
<path d="M24.5499 19.4592C24.1176 19.4592 23.7667 19.8101 23.7667 20.2424V22.6595L18.0546 16.9474C17.7488 16.6416 17.253 16.6416 16.9472 16.9474C16.6413 17.2533 16.6413 17.749 16.9472 18.0549L22.6592 23.7669H20.2422C19.8099 23.7669 19.459 24.1178 19.459 24.5502C19.459 24.9825 19.8099 25.3334 20.2422 25.3334H24.5499C24.9823 25.3334 25.3332 24.9825 25.3332 24.5502V20.2424C25.3332 19.8101 24.9823 19.4592 24.5499 19.4592Z" fill="#616E8E"/>
<path d="M9.33995 8.23318H11.757C12.1893 8.23318 12.5402 7.8823 12.5402 7.44996C12.5402 7.01763 12.1893 6.66675 11.757 6.66675H7.44924C7.0169 6.66675 6.66602 7.01763 6.66602 7.44996V11.7577C6.66602 12.19 7.0169 12.5409 7.44924 12.5409C7.88158 12.5409 8.23247 12.19 8.23247 11.7577V9.34065L13.9445 15.0526C14.0977 15.2058 14.2978 15.2821 14.4983 15.2821C14.6988 15.2821 14.8989 15.2058 15.052 15.0526C15.3579 14.7468 15.3579 14.251 15.052 13.9452L9.33995 8.23318Z" fill="#616E8E"/>
<path d="M13.9445 16.9474L8.23247 22.6595V20.2424C8.23247 19.8101 7.88158 19.4592 7.44924 19.4592C7.0169 19.4592 6.66602 19.8101 6.66602 20.2424V24.5502C6.66602 24.9825 7.0169 25.3334 7.44924 25.3334H11.757C12.1893 25.3334 12.5402 24.9825 12.5402 24.5502C12.5402 24.1178 12.1893 23.7669 11.757 23.7669H9.33995L15.052 18.0549C15.3579 17.749 15.3579 17.2533 15.052 16.9474C14.7462 16.6416 14.2504 16.6416 13.9445 16.9474Z" fill="#616E8E"/>
<!-- <path d="M56 9C59.8658 9 63 12.1342 63 16C63 19.8662 59.8658 23 56 23C52.1338 23 49 19.8666 49 16C49 12.1342 52.1338 9 56 9ZM56 21.6875C59.1412 21.6875 61.6875 19.1412 61.6875 16C61.6875 12.8588 59.1412 10.3125 56 10.3125C52.8588 10.3125 50.3125 12.8588 50.3125 16C50.3125 19.1412 52.8588 21.6875 56 21.6875ZM55.9996 12.0699C56.5009 12.0699 56.8803 12.3316 56.8803 12.7542V16.6304C56.8803 17.0535 56.501 17.3142 55.9996 17.3142C55.5104 17.3142 55.1189 17.0426 55.1189 16.6304V12.7542C55.1189 12.3416 55.5104 12.0699 55.9996 12.0699ZM55.9996 18.1875C56.4812 18.1875 56.8733 18.5795 56.8733 19.0616C56.8733 19.5428 56.4812 19.9349 55.9996 19.9349C55.5179 19.9349 55.1263 19.5428 55.1263 19.0616C55.1263 18.5795 55.5179 18.1875 55.9996 18.1875Z" fill="#616E8E"/> -->
</svg>
