<svg width="16" height="16" viewBox="0 0 16 16" fill="none" xmlns="http://www.w3.org/2000/svg">
<path fill-rule="evenodd" clip-rule="evenodd" d="M12.2353 6.10364H11.1754V3.84571C11.1754 2.24427 9.75041 0.941406 7.99891 0.941406C6.24741 0.941406 4.82244 2.24427 4.82244 3.84571V6.10364H3.76471C2.79165 6.10364 2 6.84272 2 7.75116V13.3527C2 14.2612 2.79165 15.0003 3.76471 15.0003H12.2353C13.2084 15.0003 14 14.2612 14 13.3527V7.75116C14 6.84272 13.2084 6.10364 12.2353 6.10364ZM5.99869 3.84571C5.99869 2.84989 6.89589 2.03975 7.99869 2.03975C9.10148 2.03975 9.99869 2.84989 9.99869 3.84571V6.10364H5.99869V3.84571ZM12.2353 13.9019C12.5597 13.9019 12.8236 13.6555 12.8236 13.3527V7.75116C12.8236 7.44835 12.5597 7.20199 12.2353 7.20199H3.76475C3.4404 7.20199 3.17651 7.44835 3.17651 7.75116V13.3527C3.17651 13.6555 3.4404 13.9019 3.76475 13.9019H12.2353Z" fill="#212530"/>
<path d="M8 9C7.4477 9 7 9.43922 7 9.98106C7 10.327 7.1827 10.6309 7.45846 10.8056V11.9697C7.45846 12.2626 7.70046 12.5 7.999 12.5C8.29751 12.5 8.53954 12.2626 8.53954 11.9697V10.8069C8.81641 10.6324 9 10.3279 9 9.98106C9 9.43922 8.5523 9 8 9Z" fill="#212530"/>
</svg>
