<svg width="32" height="32" viewBox="0 0 32 32" fill="none" xmlns="http://www.w3.org/2000/svg">
<path d="M6.67267 19.5726C8.24293 21.1446 10.334 22.0884 12.552 22.226C14.77 22.3636 16.9618 21.6856 18.7144 20.3197L24.7449 26.3484C24.9588 26.5549 25.2452 26.6692 25.5425 26.6666C25.8399 26.664 26.1243 26.5448 26.3345 26.3346C26.5448 26.1244 26.664 25.8401 26.6666 25.5429C26.6692 25.2456 26.5549 24.9593 26.3483 24.7455L20.3178 18.7167C21.7447 16.8861 22.4193 14.5802 22.2041 12.2694C21.9888 9.95861 20.8999 7.81693 19.1595 6.28114C17.419 4.74535 15.158 3.93115 12.8377 4.00457C10.5174 4.07799 8.3125 5.03351 6.67267 6.67626C5.82536 7.52289 5.15321 8.52812 4.69462 9.63453C4.23604 10.7409 4 11.9268 4 13.1244C4 14.3221 4.23604 15.508 4.69462 16.6144C5.15321 17.7208 5.82536 18.726 6.67267 19.5726ZM8.27612 8.2815C9.39714 7.16083 10.8722 6.46341 12.4499 6.30805C14.0276 6.15269 15.6104 6.54901 16.9286 7.42948C18.2468 8.30995 19.2188 9.62011 19.6791 11.1367C20.1394 12.6533 20.0594 14.2826 19.4528 15.7469C18.8462 17.2111 17.7505 18.4199 16.3525 19.1671C14.9544 19.9143 13.3404 20.1539 11.7855 19.8448C10.2305 19.5358 8.83091 18.6974 7.82502 17.4724C6.81912 16.2474 6.26921 14.7116 6.26897 13.1267C6.26586 12.2261 6.44168 11.3339 6.78624 10.5017C7.13079 9.6696 7.63721 8.91416 8.27612 8.27924V8.2815Z" fill="white"/>
</svg>
