<svg width="32" height="32" viewBox="0 0 32 32" fill="none" xmlns="http://www.w3.org/2000/svg">
<path d="M25.9553 21.5418C25.3355 20.9224 24.8444 20.1864 24.5104 19.3763C24.1764 18.5662 24.006 17.698 24.009 16.8218V14.0003C24.0062 12.2286 23.4155 10.5079 22.3296 9.10793C21.2437 7.70799 19.7239 6.70798 18.0085 6.26467V6.00075C18.0085 5.73786 17.9567 5.47755 17.856 5.2347C17.7554 4.99185 17.6078 4.77121 17.4219 4.5854C17.2359 4.39959 17.0152 4.25226 16.7722 4.15181C16.5293 4.05136 16.2689 3.99978 16.006 4C15.4754 4 14.9665 4.21079 14.5913 4.586C14.2161 4.96122 14.0053 5.47012 14.0053 6.00075V6.26467C12.2896 6.70766 10.7694 7.70753 9.68316 9.1075C8.5969 10.5075 8.00598 12.2284 8.00306 14.0003V16.8218C8.00382 17.7095 7.8274 18.5885 7.48414 19.4072C7.14088 20.2259 6.63768 20.9678 6.00402 21.5895C5.72371 21.8688 5.53277 22.2252 5.45545 22.6133C5.37814 23.0013 5.41795 23.4037 5.56982 23.7691C5.72071 24.1348 5.9769 24.4474 6.30586 24.6672C6.63481 24.887 7.02167 25.0041 7.41731 25.0036H13.0041C13.0043 25.3975 13.0821 25.7875 13.2331 26.1513C13.3841 26.5152 13.6054 26.8457 13.8841 27.124C14.1629 27.4023 14.4938 27.6229 14.8579 27.7733C15.222 27.9237 15.6121 28.0009 16.006 28.0004C16.4 28.0006 16.7901 27.9233 17.1541 27.7727C17.5181 27.6221 17.8488 27.4012 18.1274 27.1228C18.4061 26.8443 18.6271 26.5137 18.7779 26.1498C18.9287 25.7858 19.0063 25.3958 19.0063 25.0019H24.5914C24.9871 25.0026 25.374 24.8856 25.703 24.6658C26.032 24.446 26.2882 24.1332 26.4389 23.7674C26.592 23.3909 26.6277 22.9769 26.5414 22.5798C26.4551 22.1826 26.2508 21.8208 25.9553 21.5418ZM24.5931 23.0011L7.46669 22.9568C8.274 22.1535 8.91416 21.1982 9.35021 20.146C9.78626 19.0939 10.0096 17.9658 10.0072 16.8269V14.0003C10.009 12.4099 10.6416 10.8851 11.7662 9.7605C12.8908 8.63589 14.4156 8.00329 16.006 8.00149C17.5957 8.0042 19.1195 8.63724 20.2431 9.7618C21.3667 10.8864 21.9984 12.4106 21.9998 14.0003V16.8218C21.9983 17.973 22.2273 19.1128 22.6733 20.174C23.1192 21.2353 23.7732 22.1966 24.5965 23.0011H24.5931Z" fill="white"/>
</svg>
