<svg width="17" height="17" viewBox="0 0 17 17" fill="none" xmlns="http://www.w3.org/2000/svg">
<path d="M2.0045 11.6795C3.1822 12.8585 4.75052 13.5663 6.41401 13.6695C8.0775 13.7727 9.72132 13.2642 11.0358 12.2398L15.5587 16.7613C15.7191 16.9162 15.9339 17.0019 16.1569 17C16.3799 16.998 16.5932 16.9086 16.7509 16.751C16.9086 16.5933 16.998 16.3801 17 16.1572C17.0019 15.9342 16.9162 15.7195 16.7613 15.5591L12.2384 11.0375C13.3085 9.66455 13.8145 7.93516 13.6531 6.20206C13.4916 4.46896 12.675 2.8627 11.3696 1.71086C10.0642 0.559015 8.36854 -0.0516411 6.6283 0.00342501C4.88806 0.0584911 3.23438 0.775132 2.0045 2.00719C1.36902 2.64217 0.864906 3.39609 0.520966 4.2259C0.177027 5.0557 0 5.94512 0 6.84333C0 7.74155 0.177027 8.63097 0.520966 9.46077C0.864906 10.2906 1.36902 11.0445 2.0045 11.6795ZM3.20709 3.21113C4.04785 2.37063 5.15412 1.84755 6.3374 1.73103C7.52069 1.61451 8.70778 1.91175 9.69642 2.57211C10.6851 3.23247 11.4141 4.21508 11.7593 5.35254C12.1045 6.49001 12.0445 7.71194 11.5896 8.81015C11.1347 9.90836 10.3129 10.8149 9.26435 11.3753C8.21579 11.9358 7.00529 12.1154 5.8391 11.8836C4.67291 11.6519 3.62318 11.023 2.86876 10.1043C2.11434 9.18552 1.70191 8.0337 1.70173 6.84503C1.6994 6.16958 1.83126 5.5004 2.08968 4.8763C2.34809 4.2522 2.72791 3.68562 3.20709 3.20943V3.21113Z" fill="white"/>
</svg>
