<svg width="24" height="24" viewBox="0 0 24 24" fill="none" xmlns="http://www.w3.org/2000/svg">
<circle cx="12" cy="12" r="12" fill="#002B6B"/>
<path d="M16.1398 15.46V17H8.91578V15.782L12.8078 12.086C13.2464 11.666 13.5404 11.302 13.6898 10.994C13.8484 10.6767 13.9278 10.364 13.9278 10.056C13.9278 9.59867 13.7738 9.24867 13.4658 9.006C13.1578 8.76333 12.7051 8.642 12.1078 8.642C11.1091 8.642 10.3438 8.98267 9.81178 9.664L8.53778 8.684C8.92045 8.17067 9.43378 7.774 10.0778 7.494C10.7311 7.20467 11.4591 7.06 12.2618 7.06C13.3258 7.06 14.1751 7.312 14.8098 7.816C15.4444 8.32 15.7618 9.006 15.7618 9.874C15.7618 10.406 15.6498 10.9053 15.4258 11.372C15.2018 11.8387 14.7724 12.3707 14.1378 12.968L11.5198 15.46H16.1398Z" fill="white"/>
</svg>
