<svg width="16" height="16" viewBox="0 0 16 16" fill="none" xmlns="http://www.w3.org/2000/svg">
<path d="M12.7604 8.62361C12.7844 8.42361 12.8004 8.21561 12.8004 7.99961C12.8004 7.78361 12.7844 7.57561 12.7524 7.37561L14.1044 6.31961C14.2244 6.22361 14.2564 6.04761 14.1844 5.91161L12.9044 3.69561C12.8244 3.55161 12.6564 3.50361 12.5124 3.55161L10.9204 4.19161C10.5844 3.93561 10.2324 3.72761 9.8404 3.56761L9.6004 1.87161C9.5764 1.71161 9.4404 1.59961 9.2804 1.59961H6.7204C6.5604 1.59961 6.4324 1.71161 6.4084 1.87161L6.1684 3.56761C5.7764 3.72761 5.4164 3.94361 5.0884 4.19161L3.4964 3.55161C3.3524 3.49561 3.1844 3.55161 3.1044 3.69561L1.8244 5.91161C1.7444 6.05561 1.7764 6.22361 1.9044 6.31961L3.2564 7.37561C3.2244 7.57561 3.2004 7.79161 3.2004 7.99961C3.2004 8.20761 3.2164 8.42361 3.2484 8.62361L1.8964 9.67961C1.7764 9.77561 1.7444 9.95161 1.8164 10.0876L3.0964 12.3036C3.1764 12.4476 3.3444 12.4956 3.4884 12.4476L5.0804 11.8076C5.4164 12.0636 5.7684 12.2716 6.1604 12.4316L6.4004 14.1276C6.4324 14.2876 6.5604 14.3996 6.7204 14.3996H9.2804C9.4404 14.3996 9.5764 14.2876 9.5924 14.1276L9.8324 12.4316C10.2244 12.2716 10.5844 12.0556 10.9124 11.8076L12.5044 12.4476C12.6484 12.5036 12.8164 12.4476 12.8964 12.3036L14.1764 10.0876C14.2564 9.94361 14.2244 9.77561 14.0964 9.67961L12.7604 8.62361V8.62361ZM8.0004 10.3996C6.6804 10.3996 5.6004 9.31961 5.6004 7.99961C5.6004 6.67961 6.6804 5.59961 8.0004 5.59961C9.3204 5.59961 10.4004 6.67961 10.4004 7.99961C10.4004 9.31961 9.3204 10.3996 8.0004 10.3996Z" fill="#EB5D00"/>
</svg>
