<svg width="24" height="24" viewBox="0 0 24 24" fill="none" xmlns="http://www.w3.org/2000/svg">
<circle cx="12" cy="12" r="11.5" stroke="#8A9CC9"/>
<path d="M13.2138 11.246C14.1191 11.358 14.8098 11.666 15.2858 12.17C15.7618 12.674 15.9998 13.304 15.9998 14.06C15.9998 14.6293 15.8551 15.1473 15.5658 15.614C15.2764 16.0807 14.8378 16.454 14.2498 16.734C13.6711 17.0047 12.9618 17.14 12.1218 17.14C11.4218 17.14 10.7451 17.042 10.0918 16.846C9.44778 16.6407 8.89711 16.3607 8.43978 16.006L9.22378 14.592C9.57845 14.8907 10.0078 15.1287 10.5118 15.306C11.0251 15.474 11.5524 15.558 12.0938 15.558C12.7378 15.558 13.2418 15.4273 13.6058 15.166C13.9791 14.8953 14.1658 14.5313 14.1658 14.074C14.1658 13.6167 13.9884 13.262 13.6338 13.01C13.2884 12.7487 12.7564 12.618 12.0378 12.618H11.1418V11.372L13.3678 8.726H8.91578V7.2H15.5938V8.418L13.2138 11.246Z" fill="#8A9CC9"/>
</svg>
