<svg width="35" height="21" viewBox="0 0 35 21" fill="none" xmlns="http://www.w3.org/2000/svg">
<path fill-rule="evenodd" clip-rule="evenodd" d="M35 10C35 4.47715 30.5228 0 25 0H10C4.47715 0 0 4.47715 0 10C0 15.5228 4.47715 20 10 20H25C30.5228 20 35 15.5228 35 10Z" fill="#38B000"/>
<g filter="url(#filter0_dd_1_9034)">
<path fill-rule="evenodd" clip-rule="evenodd" d="M25 19C20.0294 19 16 14.9706 16 10C16 5.02944 20.0294 1 25 1C29.9706 1 34 5.02944 34 10C34 14.9706 29.9706 19 25 19Z" fill="white"/>
</g>
<defs>
<filter id="filter0_dd_1_9034" x="15" y="1" width="20" height="20" filterUnits="userSpaceOnUse" color-interpolation-filters="sRGB">
<feFlood flood-opacity="0" result="BackgroundImageFix"/>
<feColorMatrix in="SourceAlpha" type="matrix" values="0 0 0 0 0 0 0 0 0 0 0 0 0 0 0 0 0 0 127 0" result="hardAlpha"/>
<feOffset dy="1"/>
<feGaussianBlur stdDeviation="0.25"/>
<feColorMatrix type="matrix" values="0 0 0 0 0.64 0 0 0 0 0.672 0 0 0 0 0.8 0 0 0 0.06 0"/>
<feBlend mode="normal" in2="BackgroundImageFix" result="effect1_dropShadow_1_9034"/>
<feColorMatrix in="SourceAlpha" type="matrix" values="0 0 0 0 0 0 0 0 0 0 0 0 0 0 0 0 0 0 127 0" result="hardAlpha"/>
<feOffset dy="1"/>
<feGaussianBlur stdDeviation="0.5"/>
<feColorMatrix type="matrix" values="0 0 0 0 0.64 0 0 0 0 0.672 0 0 0 0 0.8 0 0 0 0.3 0"/>
<feBlend mode="normal" in2="effect1_dropShadow_1_9034" result="effect2_dropShadow_1_9034"/>
<feBlend mode="normal" in="SourceGraphic" in2="effect2_dropShadow_1_9034" result="shape"/>
</filter>
</defs>
</svg>
