<svg width="16" height="16" viewBox="0 0 16 16" fill="none" xmlns="http://www.w3.org/2000/svg">
<path d="M11.3012 2.1597L5.14117 8.26885C5.08054 8.3286 5.03495 8.40166 5.00807 8.48213L4.12806 11.1003C4.10052 11.1823 4.09303 11.2697 4.10619 11.3551C4.11935 11.4405 4.1528 11.5216 4.20377 11.5917C4.25475 11.6618 4.32179 11.7189 4.39938 11.7583C4.47696 11.7977 4.56287 11.8182 4.65002 11.8182C4.70907 11.8181 4.76774 11.8087 4.82382 11.7903L7.46385 10.9176C7.54485 10.8907 7.61845 10.8455 7.6789 10.7856L13.839 4.67646C13.9421 4.57417 14 4.43545 14 4.29081C14 4.14618 13.9421 4.00746 13.839 3.90517L12.0789 2.1597C11.9758 2.05745 11.8359 2 11.6901 2C11.5443 2 11.4044 2.05745 11.3012 2.1597ZM6.99304 9.92323L5.51958 10.4103L6.01073 8.94904L11.6901 3.31662L12.6724 4.29081L6.99304 9.92323ZM3.55001 12.9091H12.9001C13.046 12.9091 13.1859 12.9665 13.289 13.0688C13.3922 13.1711 13.4501 13.3099 13.4501 13.4545C13.4501 13.5992 13.3922 13.7379 13.289 13.8402C13.1859 13.9425 13.046 14 12.9001 14H3.55001C3.40414 14 3.26424 13.9425 3.16109 13.8402C3.05795 13.7379 3 13.5992 3 13.4545C3 13.3099 3.05795 13.1711 3.16109 13.0688C3.26424 12.9665 3.40414 12.9091 3.55001 12.9091Z" fill="#616E8E" stroke="#616E8E" stroke-width="0.5"/>
</svg>
