<svg width="16" height="16" viewBox="0 0 16 16" fill="none" xmlns="http://www.w3.org/2000/svg">
<path d="M13 3.99819H11.0034C11.0034 3.73345 10.8982 3.47956 10.711 3.29236C10.5238 3.10517 10.2699 3 10.0051 3H5.99487C5.7301 3 5.47618 3.10517 5.28897 3.29236C5.10175 3.47956 4.99658 3.73345 4.99658 3.99819H3V5.50687H3.50057V12.0036C3.50057 12.5331 3.71092 13.0409 4.08535 13.4153C4.45979 13.7897 4.96762 14 5.49714 14H10.5014C11.031 14 11.5388 13.7897 11.9132 13.4153C12.2877 13.0409 12.498 12.5331 12.498 12.0036V5.50687H12.9986L13 3.99819ZM11.4983 12.0036C11.4983 12.2684 11.3931 12.5223 11.2059 12.7095C11.0187 12.8966 10.7648 13.0018 10.5 13.0018H5.49572C5.23096 13.0018 4.97704 12.8966 4.78982 12.7095C4.60261 12.5223 4.49743 12.2684 4.49743 12.0036V5.50687H11.5011L11.4983 12.0036ZM6.74501 12.0036C6.61249 12.0033 6.48554 11.9504 6.39197 11.8565C6.29841 11.7627 6.24586 11.6356 6.24586 11.5031V7.50324C6.24586 7.37074 6.29841 7.24365 6.39197 7.14982C6.48554 7.056 6.61249 7.0031 6.74501 7.00272C6.87777 7.00272 7.00509 7.05546 7.09897 7.14932C7.19284 7.24319 7.24558 7.37049 7.24558 7.50324V11.5031C7.24558 11.5688 7.23263 11.6339 7.20747 11.6947C7.18232 11.7554 7.14545 11.8106 7.09897 11.857C7.05248 11.9035 6.9973 11.9404 6.93657 11.9655C6.87584 11.9907 6.81074 12.0036 6.74501 12.0036ZM9.24786 12.0036C9.1151 12.0036 8.98778 11.9509 8.89391 11.857C8.80003 11.7632 8.74729 11.6359 8.74729 11.5031V7.50324C8.74729 7.37049 8.80003 7.24319 8.89391 7.14932C8.98778 7.05546 9.1151 7.00272 9.24786 7.00272C9.38062 7.00272 9.50794 7.05546 9.60182 7.14932C9.69569 7.24319 9.74843 7.37049 9.74843 7.50324V11.5031C9.74843 11.5688 9.73549 11.6339 9.71033 11.6947C9.68517 11.7554 9.6483 11.8106 9.60182 11.857C9.55533 11.9035 9.50015 11.9404 9.43942 11.9655C9.37869 11.9907 9.3136 12.0036 9.24786 12.0036Z" fill="#EB5D00"/>
</svg>
