<svg width="16" height="16" viewBox="0 0 16 16" fill="none" xmlns="http://www.w3.org/2000/svg">
<path d="M2.66667 13.7H13.3333C13.5101 13.7 13.6797 13.7685 13.8047 13.8904C13.9298 14.0123 14 14.1776 14 14.35C14 14.5224 13.9298 14.6877 13.8047 14.8096C13.6797 14.9315 13.5101 15 13.3333 15H2.66667C2.48986 15 2.32029 14.9315 2.19526 14.8096C2.07024 14.6877 2 14.5224 2 14.35C2 14.1776 2.07024 14.0123 2.19526 13.8904C2.32029 13.7685 2.48986 13.7 2.66667 13.7ZM8.69526 11.0404L8.66667 4.2191L10.1953 5.70955C10.3211 5.82795 10.4895 5.89347 10.6643 5.89199C10.8391 5.89051 11.0063 5.82215 11.1299 5.70163C11.2535 5.58112 11.3236 5.41809 11.3251 5.24766C11.3266 5.07724 11.2594 4.91304 11.138 4.79045L8.47133 2.19045C8.40927 2.13023 8.33564 2.08253 8.25467 2.05005C8.17404 2.01702 8.08746 2 8 2C7.91254 2 7.82596 2.01702 7.74533 2.05005C7.66436 2.08253 7.59073 2.13023 7.52867 2.19045L4.862 4.79045C4.79833 4.85041 4.74754 4.92214 4.7126 5.00144C4.67766 5.08074 4.65927 5.16603 4.6585 5.25234C4.65773 5.33865 4.6746 5.42424 4.70812 5.50412C4.74164 5.584 4.79114 5.65658 4.85374 5.71761C4.91633 5.77864 4.99077 5.8269 5.0727 5.85959C5.15463 5.89227 5.24241 5.90872 5.33093 5.90796C5.41945 5.90721 5.50693 5.88928 5.58827 5.85522C5.66961 5.82115 5.74317 5.77163 5.80467 5.70955L7.33333 4.2191L7.36193 11.0404C7.36193 11.2128 7.43217 11.3781 7.55719 11.5C7.68222 11.6219 7.85178 11.6904 8.0286 11.6904C8.20541 11.6904 8.37498 11.6219 8.5 11.5C8.62502 11.3781 8.69526 11.2128 8.69526 11.0404Z" fill="#002B6B" stroke="#002B6B" stroke-width="0.3"/>
</svg>
