<svg width="16" height="16" viewBox="0 0 16 16" fill="none" xmlns="http://www.w3.org/2000/svg">
<path d="M8 11.5C5.55258 11.5 3.45759 10.0555 2.54297 8C3.45759 5.94448 5.55258 4.5 8 4.5C10.4474 4.5 12.5424 5.94448 13.457 8C12.5424 10.0555 10.4474 11.5 8 11.5ZM4.77273 8C4.77273 9.75868 6.22906 11.1667 8 11.1667C9.77094 11.1667 11.2273 9.75868 11.2273 8C11.2273 6.24132 9.77094 4.83333 8 4.83333C6.22906 4.83333 4.77273 6.24132 4.77273 8ZM6.86364 8C6.86364 7.40134 7.36004 6.9 8 6.9C8.63996 6.9 9.13636 7.40134 9.13636 8C9.13636 8.59866 8.63996 9.1 8 9.1C7.36004 9.1 6.86364 8.59866 6.86364 8Z" fill="#002B6B" stroke="#002B6B"/>
</svg>
